<?xml version="1.0" standalone="no"?>
<!DOCTYPE svg PUBLIC "-//W3C//DTD SVG 1.1//EN" "http://www.w3.org/Graphics/SVG/1.1/DTD/svg11.dtd" >
<svg xmlns="http://www.w3.org/2000/svg" xmlns:xlink="http://www.w3.org/1999/xlink" version="1.1">
<metadata></metadata>
<defs>
<font id="windowsregular" horiz-adv-x="983" >
<font-face units-per-em="2048" ascent="1638" descent="-410" />
<missing-glyph horiz-adv-x="491" />
<glyph unicode=" "  horiz-adv-x="491" />
<glyph unicode="&#x09;" horiz-adv-x="491" />
<glyph unicode="&#xa0;" horiz-adv-x="491" />
<glyph unicode="!" horiz-adv-x="327" d="M82 0v164h164v-164h-164zM82 328v1147h164v-1147h-164z" />
<glyph unicode="&#x22;" horiz-adv-x="655" d="M82 1147v491h164v-491h-164zM410 1147v491h163v-491h-163z" />
<glyph unicode="#" horiz-adv-x="1146" d="M82 328v164h164v491h-164v164h164v328h164v-328h327v328h164v-328h164v-164h-164v-491h164v-164h-164v-328h-164v328h-327v-328h-164v328h-164zM410 492h327v491h-327v-491z" />
<glyph unicode="$" d="M82 164v164h164v-164h164v491h-164v164h-164v328h164v-328h164v328h-164v164h164v164h163v-164h164v-164h164v-164h-164v164h-164v-492h164v-163h164v-328h-164v328h-164v-328h164v-164h-164v-164h-163v164h-164v164h-164z" />
<glyph unicode="%" horiz-adv-x="1310" d="M82 164v164h164v-164h-164zM82 1147v164h164v-164h-164zM246 328v164h164v-164h-164zM246 983v164h327v-164h-327zM246 1311v164h327v-164h-327zM410 492v163h163v-163h-163zM573 164v164h164v-164h-164zM573 655v164h164v-164h-164zM573 1147v164h164v-164h-164zM737 0 v164h328v-164h-328zM737 328v164h328v-164h-328zM737 819v164h164v-164h-164zM901 983v164h164v-164h-164zM1065 164v164h164v-164h-164zM1065 1147v164h164v-164h-164z" />
<glyph unicode="&#x26;" d="M82 164v491h164v-491h-164zM82 983v328h164v-328h-164zM246 0v164h327v-164h-327zM246 655v328h164v-328h-164zM246 1311v164h164v-164h-164zM410 492v163h163v-163h-163zM410 983v328h163v-328h-163zM573 164v328h164v-328h-164zM737 0v164h164v-164h-164zM737 492v163 h164v-163h-164z" />
<glyph unicode="'" horiz-adv-x="327" d="M82 1147v491h164v-491h-164z" />
<glyph unicode="(" horiz-adv-x="491" d="M82 0v1475h164v-1475h-164zM246 0h164v-164h-164v164zM246 1475v163h164v-163h-164z" />
<glyph unicode=")" horiz-adv-x="491" d="M82 0v-164h164v164h-164zM82 1475h164v163h-164v-163zM246 0h164v1475h-164v-1475z" />
<glyph unicode="*" horiz-adv-x="655" d="M82 1147v164h164v-164h-164zM82 1475v163h164v-163h-164zM246 1311v164h164v-164h-164zM410 1147v164h163v-164h-163zM410 1475v163h163v-163h-163z" />
<glyph unicode="+" d="M82 492v163h328v328h163v-328h328v-163h-328v-328h-163v328h-328z" />
<glyph unicode="," horiz-adv-x="491" d="M82 0h164v-164h-164v164zM246 0v164h164v-164h-164z" />
<glyph unicode="-" horiz-adv-x="655" d="M82 492v163h491v-163h-491z" />
<glyph unicode="." horiz-adv-x="327" d="M82 0v164h164v-164h-164z" />
<glyph unicode="/" horiz-adv-x="819" d="M82 0v328h164v-328h-164zM246 328v327h164v-327h-164zM410 655v328h163v-328h-163zM573 983v492h164v-492h-164z" />
<glyph unicode="0" d="M82 164v1147h164v-1147h-164zM246 0v164h491v-164h-491zM246 1311v164h491v-164h-491zM737 164v1147h164v-1147h-164z" />
<glyph unicode="1" horiz-adv-x="655" d="M82 1147v164h328v164h163v-1475h-163v1147h-328z" />
<glyph unicode="2" d="M82 0v328h164v-164h655v-164h-819zM82 1147v164h164v-164h-164zM246 328v164h164v-164h-164zM246 1311v164h491v-164h164v-492h-164v492h-491zM410 492v163h163v-163h-163zM573 655v164h164v-164h-164z" />
<glyph unicode="3" d="M82 164v164h164v-164h-164zM82 1147v164h164v-164h-164zM246 0v164h491v-164h-491zM246 1311v164h491v-164h-491zM410 655v164h327v-164h-327zM737 164v491h164v-491h-164zM737 819v492h164v-492h-164z" />
<glyph unicode="4" d="M82 328v327h164v-163h327v491h-163v328h163v164h164v-983h164v-164h-164v-328h-164v328h-491zM246 655v328h164v-328h-164z" />
<glyph unicode="5" d="M82 164v164h164v-164h491v-164h-491v164h-164zM82 655v820h819v-164h-655v-328h491v-164h164v-655h-164v655h-491v-164h-164z" />
<glyph unicode="6" d="M82 164v1147h164v-492h491v-164h164v-491h-164v491h-491v-491h491v-164h-491v164h-164zM246 1311v164h491v-164h164v-164h-164v164h-491z" />
<glyph unicode="7" d="M82 1311v164h819v-328h-164v164h-655zM246 0v492h164v-492h-164zM410 492v327h163v-327h-163zM573 819v328h164v-328h-164z" />
<glyph unicode="8" d="M82 164v491h164v-491h-164zM82 819v492h164v-492h-164zM246 0v164h491v-164h-491zM246 655v164h491v-164h-491zM246 1311v164h491v-164h-491zM737 164v491h164v-491h-164zM737 819v492h164v-492h-164z" />
<glyph unicode="9" d="M82 164v164h164v-164h491v-164h-491v164h-164zM82 820v491h164v-491h491v491h-491v164h491v-164h164v-1147h-164v492h-491v164h-164z" />
<glyph unicode=":" horiz-adv-x="327" d="M82 164v164h164v-164h-164zM82 737v164h164v-164h-164z" />
<glyph unicode=";" horiz-adv-x="327" d="M-80 0h164v-164h-164v164zM82 737v164h164v-164h-164zM84 0v164h164v-164h-164z" />
<glyph unicode="&#x3c;" horiz-adv-x="819" d="M82 655v164h164v-164h-164zM246 492v163h164v-163h-164zM246 819v164h164v-164h-164zM410 328v164h163v-164h-163zM410 983v164h163v-164h-163zM573 164v164h164v-164h-164zM573 1147v164h164v-164h-164z" />
<glyph unicode="=" d="M82 410v163h819v-163h-819zM82 737v164h819v-164h-819z" />
<glyph unicode="&#x3e;" horiz-adv-x="819" d="M82 164v164h164v-164h-164zM82 1147v164h164v-164h-164zM246 328v164h163v-164h-163zM246 983v164h163v-164h-163zM409 492v164h164v-164h-164zM409 820v163h164v-163h-164zM573 656v164h164v-164h-164z" />
<glyph unicode="?" d="M82 1147v164h164v-164h-164zM246 1311v164h491v-164h-491zM410 0v164h163v-164h-163zM410 328v327h163v-327h-163zM573 655v164h164v-164h-164zM737 819v492h164v-492h-164z" />
<glyph unicode="@" horiz-adv-x="1802" d="M82 328v655h164v-655h164v-164h163v-164h820v-164h-820v164h-327v328h-164zM246 983v328h327v-164h-163v-164h-164zM573 492v327h164v-327h328v-164h-328v164h-164zM573 1311v164h656v-164h327v-328h164v-655h-491v164h-164v327h-328v164h492v-491h327v491h-163v164h-164 v164h-656z" />
<glyph unicode="A" horiz-adv-x="1310" d="M82 0v328h164v-328h-164zM246 328v491h164v-327h491v327h-164v328h-164v328h164v-328h164v-328h164v-491h164v-328h-164v328h-819zM410 819v328h163v-328h-163z" />
<glyph unicode="B" d="M82 0v1475h655v-164h164v-492h-164v492h-491v-492h491v-164h164v-491h-164v491h-491v-491h491v-164h-655z" />
<glyph unicode="C" horiz-adv-x="1146" d="M82 164v1147h164v-1147h-164zM246 0v164h655v-164h-655zM246 1311v164h655v-164h-655zM901 164v164h164v-164h-164zM901 1147v164h164v-164h-164z" />
<glyph unicode="D" horiz-adv-x="1146" d="M82 0v1475h655v-164h164v-164h164v-819h-164v819h-164v164h-491v-1147h491v-164h-655zM737 164v164h164v-164h-164z" />
<glyph unicode="E" d="M82 0v1475h819v-164h-655v-492h491v-164h-491v-491h655v-164h-819z" />
<glyph unicode="F" d="M82 0v1475h819v-164h-655v-492h491v-164h-491v-655h-164z" />
<glyph unicode="G" horiz-adv-x="1146" d="M82 164v1147h164v-1147h491v-164h-491v164h-164zM246 1311v164h655v-164h164v-164h-164v164h-655zM573 655v164h492v-819h-164v164h-164v164h164v327h-328z" />
<glyph unicode="H" horiz-adv-x="1146" d="M82 0v1475h164v-656h655v656h164v-1475h-164v655h-655v-655h-164z" />
<glyph unicode="I" horiz-adv-x="327" d="M82 0v1475h164v-1475h-164z" />
<glyph unicode="J" horiz-adv-x="819" d="M82 164v328h164v-328h-164zM246 0v164h327v-164h-327zM573 164v1311h164v-1311h-164z" />
<glyph unicode="K" horiz-adv-x="1146" d="M82 0v1475h164v-492h164v-328h163v-163h164v-164h164v-164h164v-164h-164v164h-164v164h-164v164h-163v163h-164v-655h-164zM410 983v164h163v-164h-163zM573 1147v164h164v-164h-164zM737 1311v164h164v-164h-164z" />
<glyph unicode="L" d="M82 0v1475h164v-1311h655v-164h-819z" />
<glyph unicode="M" horiz-adv-x="1310" d="M82 0v1475h164v-328h164v-328h163v-327h164v-328h-164v328h-163v327h-164v-819h-164zM737 492v327h164v-327h-164zM901 819v328h164v328h164v-1475h-164v819h-164z" />
<glyph unicode="N" horiz-adv-x="1146" d="M82 0v1475h164v-164h164v-328h163v-328h164v-163h164v983h164v-1475h-164v164h-164v328h-164v163h-163v328h-164v-983h-164z" />
<glyph unicode="O" horiz-adv-x="1146" d="M82 164v1147h164v-1147h-164zM246 0v164h655v-164h-655zM246 1311v164h655v-164h-655zM901 164v1147h164v-1147h-164z" />
<glyph unicode="P" horiz-adv-x="1146" d="M82 0v1475h819v-164h164v-492h-164v492h-655v-492h655v-164h-655v-655h-164z" />
<glyph unicode="Q" horiz-adv-x="1146" d="M82 164v1147h164v-1147h491v164h-164v164h164v-164h164v983h-655v164h655v-164h164v-1147h-164v-164h164v-164h-164v164h-655v164h-164z" />
<glyph unicode="R" horiz-adv-x="1146" d="M82 0v1475h819v-164h164v-492h-164v492h-655v-492h655v-164h-655v-655h-164zM901 0v655h164v-655h-164z" />
<glyph unicode="S" d="M82 164v164h164v-164h-164zM82 819v492h164v-492h-164zM246 0v164h491v-164h-491zM246 655v164h491v-164h-491zM246 1311v164h491v-164h-491zM737 164v491h164v-491h-164zM737 1147v164h164v-164h-164z" />
<glyph unicode="T" d="M82 1311v164h819v-164h-328v-1311h-163v1311h-328z" />
<glyph unicode="U" horiz-adv-x="1146" d="M82 164v1311h164v-1311h-164zM246 0v164h655v-164h-655zM901 164v1311h164v-1311h-164z" />
<glyph unicode="V" horiz-adv-x="1310" d="M82 1147v328h164v-328h-164zM246 655v492h164v-492h-164zM410 328v327h163v-327h-163zM573 0v328h164v-328h-164zM737 328v327h164v-327h-164zM901 655v492h164v-492h-164zM1065 1147v328h164v-328h-164z" />
<glyph unicode="W" horiz-adv-x="1966" d="M82 1147v328h164v-328h-164zM246 655v492h164v-492h-164zM410 328v327h163v-327h-163zM573 0v328h164v-328h-164zM737 328v327h164v-327h-164zM901 655v492h164v-492h-164zM1065 328v327h164v-327h-164zM1229 0v328h164v-328h-164zM1393 328v327h163v-327h-163zM1556 655 v492h164v-492h-164zM1720 1147v328h164v-328h-164z" />
<glyph unicode="X" horiz-adv-x="1310" d="M82 0v328h164v-328h-164zM82 1147v328h164v-328h-164zM246 328v164h164v-164h-164zM246 983v164h164v-164h-164zM410 492v163h163v-163h-163zM410 819v164h163v-164h-163zM573 655v164h164v-164h-164zM737 492v163h164v-163h-164zM737 819v164h164v-164h-164zM901 328 v164h164v-164h-164zM901 983v164h164v-164h-164zM1065 0v328h164v-328h-164zM1065 1147v328h164v-328h-164z" />
<glyph unicode="Y" horiz-adv-x="1310" d="M82 1147v328h164v-328h-164zM246 983v164h164v-164h-164zM410 819v164h163v-164h-163zM573 0v819h164v-819h-164zM737 819v164h164v-164h-164zM901 983v164h164v-164h-164zM1065 1147v328h164v-328h-164z" />
<glyph unicode="Z" horiz-adv-x="1310" d="M82 0v328h164v-164h983v-164h-1147zM82 1311v164h1147v-328h-164v164h-983zM246 328v164h164v-164h-164zM410 492v163h163v-163h-163zM573 655v164h164v-164h-164zM737 819v164h164v-164h-164zM901 983v164h164v-164h-164z" />
<glyph unicode="[" horiz-adv-x="491" d="M82 -164v1802h328v-163h-164v-1475h164v-164h-328z" />
<glyph unicode="\" horiz-adv-x="819" d="M82 983h164v492h-164v-492zM246 655h163v328h-163v-328zM409 328h164v327h-164v-327zM573 0h164v328h-164v-328z" />
<glyph unicode="]" horiz-adv-x="491" d="M82 0v-164h328v1802h-328v-163h164v-1475h-164z" />
<glyph unicode="^" d="M82 983v164h164v-164h-164zM246 1147v164h164v-164h-164zM410 1311v164h163v-164h-163zM573 1147v164h164v-164h-164zM737 983v164h164v-164h-164z" />
<glyph unicode="_" horiz-adv-x="819" d="M82 0h655v-164h-655v164z" />
<glyph unicode="`" horiz-adv-x="491" d="M82 1311v164h164v-164h-164zM246 1147v164h164v-164h-164z" />
<glyph unicode="a" d="M82 164v328h164v-328h491v328h-491v163h491v164h-491v164h491v-164h164v-819h-655v164h-164z" />
<glyph unicode="b" d="M82 0v1475h164v-492h491v-164h164v-655h-164v655h-491v-655h491v-164h-655z" />
<glyph unicode="c" d="M82 164v655h164v-655h-164zM246 0v164h491v-164h-491zM246 819v164h491v-164h-491zM737 164v164h164v-164h-164zM737 655v164h164v-164h-164z" />
<glyph unicode="d" d="M82 164v655h164v164h491v492h164v-1475h-655v164h491v655h-491v-655h-164z" />
<glyph unicode="e" d="M82 164v655h164v-164h491v164h-491v164h491v-164h164v-327h-655v-328h491v-164h-491v164h-164zM737 164v164h164v-164h-164z" />
<glyph unicode="f" horiz-adv-x="491" d="M82 0v1311h164v-328h164v-164h-164v-819h-164zM246 1311v164h164v-164h-164z" />
<glyph unicode="g" d="M82 164v655h164v-655h491v655h-491v164h655v-1147h-164v164h-491v164h-164zM82 -164h655v-164h-655v164z" />
<glyph unicode="h" d="M82 0v1475h164v-656h164v-164h-164v-655h-164zM410 819v164h327v-164h164v-819h-164v819h-327z" />
<glyph unicode="i" horiz-adv-x="327" d="M82 0v983h164v-983h-164zM82 1311v164h164v-164h-164z" />
<glyph unicode="j" horiz-adv-x="327" d="M-82 -328h164v-164h-164v164zM82 -328v1311h164v-1311h-164zM82 1311v164h164v-164h-164z" />
<glyph unicode="k" d="M82 0v1475h164v-820h164v-163h163v-164h164v-164h164v-164h-164v164h-164v164h-163v164h-164v-492h-164zM410 655v164h163v-164h-163zM573 819v164h164v-164h-164z" />
<glyph unicode="l" horiz-adv-x="327" d="M82 0v1475h164v-1475h-164z" />
<glyph unicode="m" horiz-adv-x="1310" d="M82 0v983h491v-164h164v-819h-164v819h-327v-819h-164zM737 819v164h328v-164h164v-819h-164v819h-328z" />
<glyph unicode="n" d="M82 0v983h164v-164h164v-164h-164v-655h-164zM410 819v164h327v-164h164v-819h-164v819h-327z" />
<glyph unicode="o" d="M82 164v655h164v-655h-164zM246 0v164h491v-164h-491zM246 819v164h491v-164h-491zM737 164v655h164v-655h-164z" />
<glyph unicode="p" d="M82 -492v1475h655v-164h-491v-655h491v655h164v-655h-164v-164h-491v-492h-164z" />
<glyph unicode="q" d="M82 164v655h164v-655h491v655h-491v164h655v-1475h-164v492h-491v164h-164z" />
<glyph unicode="r" horiz-adv-x="491" d="M82 0v983h328v-164h-164v-819h-164z" />
<glyph unicode="s" horiz-adv-x="819" d="M82 164v164h164v-164h-164zM82 655v164h164v-164h-164zM246 0v164h327v-164h-327zM246 492v163h164v-163h-164zM246 819v164h327v-164h-327zM410 328v164h163v-164h-163zM573 164v164h164v-164h-164zM573 655v164h164v-164h-164z" />
<glyph unicode="t" horiz-adv-x="491" d="M82 164v1147h164v-328h164v-164h-164v-655h164v-164h-164v164h-164z" />
<glyph unicode="u" d="M82 164v819h164v-819h327v-164h-327v164h-164zM573 164v164h164v655h164v-983h-164v164h-164z" />
<glyph unicode="v" d="M82 655v328h164v-328h-164zM246 328v327h164v-327h-164zM410 0v328h163v-328h-163zM573 328v327h164v-327h-164zM737 655v328h164v-328h-164z" />
<glyph unicode="w" horiz-adv-x="1310" d="M82 328v655h164v-655h-164zM246 0v328h164v-328h-164zM410 328v327h163v-327h-163zM573 655v328h164v-328h-164zM737 328v327h164v-327h-164zM901 0v328h164v-328h-164zM1065 328v655h164v-655h-164z" />
<glyph unicode="x" horiz-adv-x="819" d="M82 0v328h164v-328h-164zM82 655v328h164v-328h-164zM246 328v327h327v-327h-327zM573 0v328h164v-328h-164zM573 655v328h164v-328h-164z" />
<glyph unicode="y" horiz-adv-x="819" d="M-82 -164h328v-164h-328v164zM82 328v655h164v-655h327v-164h-163v-328h-164v492h-164zM573 328v655h164v-655h-164z" />
<glyph unicode="z" horiz-adv-x="819" d="M82 0v328h164v-164h491v-164h-655zM82 819v164h655v-328h-164v164h-491zM246 328v164h164v-164h-164zM410 492v163h163v-163h-163z" />
<glyph unicode="{" horiz-adv-x="655" d="M82 655v164h164v-164h-164zM246 0v655h164v-655h-164zM246 819v656h164v-656h-164zM410 0h163v-164h-163v164zM410 1475v163h163v-163h-163z" />
<glyph unicode="|" horiz-adv-x="327" d="M82 -164v1802h164v-1802h-164z" />
<glyph unicode="}" horiz-adv-x="655" d="M82 0v-164h163v164h-163zM82 1475h163v163h-163v-163zM245 0h164v655h-164v-655zM245 819h164v656h-164v-656zM409 655h164v164h-164v-164z" />
<glyph unicode="~" horiz-adv-x="1146" d="M82 1147v164h164v-164h-164zM246 1311v164h327v-164h-327zM573 1147v164h328v-164h-328zM901 1311v164h164v-164h-164z" />
<glyph unicode="&#xa1;" horiz-adv-x="327" d="M82 -492v1147h164v-1147h-164zM82 819v164h164v-164h-164z" />
<glyph unicode="&#xa2;" d="M82 164v655h164v-655h491v-164h-164v-164h-163v164h-164v164h-164zM246 819v164h164v164h163v-164h164v-164h164v-164h-164v164h-491zM737 164v164h164v-164h-164z" />
<glyph unicode="&#xa3;" horiz-adv-x="1146" d="M82 0v164h164v491h-164v164h164v492h164v-492h327v-164h-327v-491h655v-164h-983zM410 1311v164h491v-164h164v-164h-164v164h-491z" />
<glyph unicode="&#xa4;" horiz-adv-x="1310" d="M82 164v164h164v-164h-164zM82 1147v164h164v-164h-164zM246 492v491h164v-491h-164zM410 328v164h491v-164h-491zM410 983v164h491v-164h-491zM901 492v491h164v-491h-164zM1065 164v164h164v-164h-164zM1065 1147v164h164v-164h-164z" />
<glyph unicode="&#xa5;" horiz-adv-x="1310" d="M82 1147v328h164v-328h164v-164h163v-164h164v-164h164v-163h-164v-164h164v-164h-164v-164h-164v164h-163v164h163v164h-163v163h163v164h-163v164h-164v164h-164zM737 819v164h164v-164h-164zM901 983v164h164v-164h-164zM1065 1147v328h164v-328h-164z" />
<glyph unicode="&#xa6;" horiz-adv-x="327" d="M82 -164v819h164v-819h-164zM82 819v819h164v-819h-164z" />
<glyph unicode="&#xa7;" d="M82 -164h164v-164h-164v164zM82 328v327h164v-327h-164zM82 819v492h164v-492h-164zM246 164v164h491v-164h-491zM246 -328h491v-164h-491v164zM246 655v164h491v-164h-491zM246 1311v164h491v-164h-491zM737 164h164v-492h-164v492zM737 328v327h164v-327h-164z M737 1147v164h164v-164h-164z" />
<glyph unicode="&#xa8;" horiz-adv-x="655" d="M82 1147v164h164v-164h-164zM410 1147v164h163v-164h-163z" />
<glyph unicode="&#xa9;" horiz-adv-x="1638" d="M82 328v819h164v-819h-164zM246 164v164h164v-164h-164zM246 1147v164h164v-164h-164zM410 0v164h819v-164h-819zM410 492v491h163v-491h-163zM410 1311v164h819v-164h-819zM573 328v164h492v-164h-492zM573 983v164h492v-164h-492zM1065 492v163h164v-163h-164z M1065 819v164h164v-164h-164zM1229 164v164h164v-164h-164zM1229 1147v164h164v-164h-164zM1393 328v819h163v-819h-163z" />
<glyph unicode="&#xaa;" d="M82 656v328h164v-328h491v328h-491v163h491v164h-491v164h491v-164h164v-819h-655v164h-164zM164 0v164h655v-164h-655z" />
<glyph unicode="&#xab;" horiz-adv-x="1310" d="M82 655v164h164v-164h-164zM246 492v163h164v-163h-164zM246 819v164h164v-164h-164zM410 328v164h163v-164h-163zM410 983v164h163v-164h-163zM573 164v164h164v-164h-164zM573 1147v164h164v-164h-164zM574 655v164h164v-164h-164zM738 492v163h164v-163h-164zM738 819 v164h164v-164h-164zM902 328v164h163v-164h-163zM902 983v164h163v-164h-163zM1065 164v164h164v-164h-164zM1065 1147v164h164v-164h-164z" />
<glyph unicode="&#xac;" d="M82 492v163h819v-491h-164v328h-655z" />
<glyph unicode="&#xad;" horiz-adv-x="655" d="M82 492v163h491v-163h-491z" />
<glyph unicode="&#xae;" horiz-adv-x="1474" d="M82 655v656h164v-656h164v-163h655v-164h-655v164h-164v163h-164zM246 1311v164h164v-164h491v-164h164v-164h-164v164h-328v-164h328v-164h164v-164h164v-163h-164v163h-164v164h-328v-164h-163v656h-164zM410 1475v163h655v-163h164v-164h164v-656h-164v656h-164v164 h-655z" />
<glyph unicode="&#xaf;" horiz-adv-x="819" d="M82 1147v164h655v-164h-655z" />
<glyph unicode="&#xb0;" horiz-adv-x="819" d="M82 1147v328h164v-328h-164zM246 983v164h327v-164h-327zM246 1475v163h327v-163h-327zM573 1147v328h164v-328h-164z" />
<glyph unicode="&#xb1;" d="M82 3v163h819v-163h-819zM82 656v163h328v328h163v-328h328v-163h-328v-328h-163v328h-328z" />
<glyph unicode="&#xb2;" horiz-adv-x="655" d="M82 819v328h164v-164h327v-164h-491zM82 1475v163h328v-163h163v-164h-163v164h-328zM246 1147v164h164v-164h-164z" />
<glyph unicode="&#xb3;" horiz-adv-x="655" d="M82 819v164h328v-164h-328zM82 1475v163h328v-163h-328zM246 1147v164h164v-164h-164zM410 983v164h163v-164h-163zM410 1311v164h163v-164h-163z" />
<glyph unicode="&#xb4;" horiz-adv-x="491" d="M82 1147v164h164v-164h-164zM246 1311v164h164v-164h-164z" />
<glyph unicode="&#xb5;" d="M82 -492v1475h164v-819h327v-164h-327v-492h-164zM573 164v164h164v655h164v-983h-164v164h-164z" />
<glyph unicode="&#xb6;" horiz-adv-x="1474" d="M82 819v492h164v164h1147v-164h-164v-1311h-164v1311h-328v-1311h-164v655h-327v164h-164z" />
<glyph unicode="&#xb7;" horiz-adv-x="327" d="M82 655v164h164v-164h-164z" />
<glyph unicode="&#xb8;" horiz-adv-x="655" d="M82 -164h328v-164h-328v164zM410 0h163v-164h-163v164z" />
<glyph unicode="&#xb9;" horiz-adv-x="491" d="M82 1311v164h164v163h164v-819h-164v492h-164z" />
<glyph unicode="&#xba;" d="M82 656v655h164v-655h-164zM164 0v164h655v-164h-655zM246 492v164h491v-164h-491zM246 1311v164h491v-164h-491zM737 656v655h164v-655h-164z" />
<glyph unicode="&#xbb;" horiz-adv-x="1310" d="M82 164h164v164h-164v-164zM82 1147h164v164h-164v-164zM246 328h163v164h-163v-164zM246 983h163v164h-163v-164zM409 492h164v163h-164v-163zM409 819h164v164h-164v-164zM573 655h164v164h-164v-164zM574 164h164v164h-164v-164zM574 1147h164v164h-164v-164zM738 328 h163v164h-163v-164zM738 983h163v164h-163v-164zM901 492h164v163h-164v-163zM901 819h164v164h-164v-164zM1065 655h164v164h-164v-164z" />
<glyph unicode="&#xbc;" horiz-adv-x="1884" d="M82 1149v164h164v163h164v-819h-164v492h-164zM492 0v328h164v-328h-164zM656 328v327h164v-327h-164zM820 655v328h163v-328h-163zM983 983v492h164v-492h-164zM1147 166v328h164v164h164v163h163v-491h164v-164h-164v-164h-163v164h-328zM1311 330h164v164h-164v-164z " />
<glyph unicode="&#xbd;" horiz-adv-x="1884" d="M82 1149v164h164v163h164v-819h-164v492h-164zM492 0v328h164v-328h-164zM656 328v327h164v-327h-164zM820 655v328h163v-328h-163zM983 983v492h164v-492h-164zM1311 2v328h164v-164h327v-164h-491zM1311 658v163h328v-163h163v-164h-163v164h-328zM1475 330v164h164 v-164h-164z" />
<glyph unicode="&#xbe;" horiz-adv-x="2129" d="M82 657v164h328v-164h-328zM82 1313v163h328v-163h-328zM246 985v164h164v-164h-164zM410 821v164h163v-164h-163zM410 1149v164h163v-164h-163zM655 0v328h164v-328h-164zM819 328v327h164v-327h-164zM983 655v328h163v-328h-163zM1146 983v492h164v-492h-164zM1393 166 v328h164v164h164v163h163v-491h164v-164h-164v-164h-163v164h-328zM1557 330h164v164h-164v-164z" />
<glyph unicode="&#xbf;" d="M82 164h164v-492h-164v492zM246 164v164h164v-164h-164zM246 -328h491v-164h-491v164zM410 328v327h163v-327h-163zM410 819v164h163v-164h-163zM737 -164h164v-164h-164v164z" />
<glyph unicode="&#xc0;" horiz-adv-x="1310" d="M82 0v328h164v-328h-164zM246 328v491h164v-327h491v327h-164v328h-164v328h164v-328h164v-328h164v-491h164v-328h-164v328h-819zM410 819v328h163v-328h-163zM410 1803v164h164v-164h-164zM574 1639v164h164v-164h-164z" />
<glyph unicode="&#xc1;" horiz-adv-x="1310" d="M82 0v328h164v-328h-164zM246 328v491h164v-327h491v327h-164v328h-164v328h164v-328h164v-328h164v-491h164v-328h-164v328h-819zM410 819v328h163v-328h-163zM574 1639v164h164v-164h-164zM738 1803v164h164v-164h-164z" />
<glyph unicode="&#xc2;" horiz-adv-x="1310" d="M82 0v328h164v-328h-164zM246 328v491h164v-327h491v327h-164v328h-164v328h164v-328h164v-328h164v-491h164v-328h-164v328h-819zM410 819v328h163v-328h-163zM410 1639v164h164v-164h-164zM574 1803v164h164v-164h-164zM738 1639v164h163v-164h-163z" />
<glyph unicode="&#xc3;" horiz-adv-x="1310" d="M82 0v328h164v-328h-164zM246 328v491h164v-327h491v327h-164v328h-164v328h164v-328h164v-328h164v-491h164v-328h-164v328h-819zM328 1803v164h328v-164h-328zM410 819v328h163v-328h-163zM656 1639v164h327v-164h-327z" />
<glyph unicode="&#xc4;" horiz-adv-x="1310" d="M82 0v328h164v-328h-164zM246 328v491h164v-327h491v327h-164v328h-164v328h164v-328h164v-328h164v-491h164v-328h-164v328h-819zM410 819v328h163v-328h-163zM410 1639v164h164v-164h-164zM738 1639v164h163v-164h-163z" />
<glyph unicode="&#xc5;" horiz-adv-x="1310" d="M82 0v328h164v-328h-164zM246 328v491h164v-327h491v327h-164v328h-164v328h-163v163h163v-163h164v163h-164v164h164v-164h164v-163h-164v-328h164v-328h164v-491h164v-328h-164v328h-819zM410 819v328h163v-328h-163z" />
<glyph unicode="&#xc6;" horiz-adv-x="1638" d="M82 0v328h164v-328h-164zM246 328v491h164v-327h327v655h-164v328h983v-164h-655v-492h492v-164h-492v-491h655v-164h-819v328h-491zM410 819v328h163v-328h-163z" />
<glyph unicode="&#xc7;" horiz-adv-x="1146" d="M82 164v1147h164v-1147h-164zM246 0v164h655v-164h-655zM246 -164h328v-164h-328v164zM246 1311v164h655v-164h-655zM574 0h163v-164h-163v164zM901 164v164h164v-164h-164zM901 1147v164h164v-164h-164z" />
<glyph unicode="&#xc8;" d="M82 0v1475h819v-164h-655v-492h491v-164h-491v-491h655v-164h-819zM246 1803v164h164v-164h-164zM410 1639v164h164v-164h-164z" />
<glyph unicode="&#xc9;" d="M82 0v1475h819v-164h-655v-492h491v-164h-491v-491h655v-164h-819zM410 1639v164h164v-164h-164zM574 1803v164h164v-164h-164z" />
<glyph unicode="&#xca;" d="M82 0v1475h819v-164h-655v-492h491v-164h-491v-491h655v-164h-819zM246 1639v164h164v-164h-164zM410 1803v164h164v-164h-164zM574 1639v164h163v-164h-163z" />
<glyph unicode="&#xcb;" d="M82 0v1475h819v-164h-655v-492h491v-164h-491v-491h655v-164h-819zM246 1639v164h164v-164h-164zM574 1639v164h163v-164h-163z" />
<glyph unicode="&#xcc;" horiz-adv-x="327" d="M-80 1803v164h164v-164h-164zM82 0v1475h164v-1475h-164zM84 1639v164h164v-164h-164z" />
<glyph unicode="&#xcd;" horiz-adv-x="327" d="M82 0v1475h164v-1475h-164zM82 1639v164h164v-164h-164zM246 1803v164h164v-164h-164z" />
<glyph unicode="&#xce;" horiz-adv-x="327" d="M-80 1639v164h164v-164h-164zM82 0v1475h164v-1475h-164zM84 1803v164h164v-164h-164zM248 1639v164h163v-164h-163z" />
<glyph unicode="&#xcf;" horiz-adv-x="327" d="M-80 1639v164h164v-164h-164zM82 0v1475h164v-1475h-164zM248 1639v164h163v-164h-163z" />
<glyph unicode="&#xd0;" horiz-adv-x="1310" d="M82 655v164h164v656h655v-164h164v-164h164v-819h-164v819h-164v164h-491v-492h163v-164h-163v-491h491v-164h-655v655h-164zM901 164v164h164v-164h-164z" />
<glyph unicode="&#xd1;" horiz-adv-x="1146" d="M82 0v1475h164v-164h164v-328h163v-328h164v-163h164v983h164v-1475h-164v164h-164v328h-164v163h-163v328h-164v-983h-164zM246 1803v164h328v-164h-328zM574 1639v164h327v-164h-327z" />
<glyph unicode="&#xd2;" horiz-adv-x="1146" d="M82 164v1147h164v-1147h-164zM246 0v164h655v-164h-655zM246 1311v164h655v-164h-655zM328 1803v164h164v-164h-164zM492 1639v164h164v-164h-164zM901 164v1147h164v-1147h-164z" />
<glyph unicode="&#xd3;" horiz-adv-x="1146" d="M82 164v1147h164v-1147h-164zM246 0v164h655v-164h-655zM246 1311v164h655v-164h-655zM492 1639v164h164v-164h-164zM656 1803v164h164v-164h-164zM901 164v1147h164v-1147h-164z" />
<glyph unicode="&#xd4;" horiz-adv-x="1146" d="M82 164v1147h164v-1147h-164zM246 0v164h655v-164h-655zM246 1311v164h655v-164h-655zM328 1639v164h164v-164h-164zM492 1803v164h164v-164h-164zM656 1639v164h163v-164h-163zM901 164v1147h164v-1147h-164z" />
<glyph unicode="&#xd5;" horiz-adv-x="1146" d="M82 164v1147h164v-1147h-164zM246 0v164h655v-164h-655zM246 1311v164h655v-164h-655zM246 1803v164h328v-164h-328zM574 1639v164h327v-164h-327zM901 164v1147h164v-1147h-164z" />
<glyph unicode="&#xd6;" horiz-adv-x="1146" d="M82 164v1147h164v-1147h-164zM246 0v164h655v-164h-655zM246 1311v164h655v-164h-655zM328 1639v164h164v-164h-164zM656 1639v164h163v-164h-163zM901 164v1147h164v-1147h-164z" />
<glyph unicode="&#xd7;" d="M82 328v164h164v-164h-164zM82 983v164h164v-164h-164zM246 492v163h164v-163h-164zM246 819v164h164v-164h-164zM410 655v164h163v-164h-163zM573 492v163h164v-163h-164zM573 819v164h164v-164h-164zM737 328v164h164v-164h-164zM737 983v164h164v-164h-164z" />
<glyph unicode="&#xd8;" horiz-adv-x="1146" d="M82 164v1147h164v-1147h655v-164h-246v-164h-163v164h-246v164h-164zM246 1311v164h246v163h172v-163h237v-164h164v-1147h-164v1147h-655z" />
<glyph unicode="&#xd9;" horiz-adv-x="1146" d="M82 164v1311h164v-1311h-164zM246 0v164h655v-164h-655zM328 1803v164h164v-164h-164zM492 1639v164h164v-164h-164zM901 164v1311h164v-1311h-164z" />
<glyph unicode="&#xda;" horiz-adv-x="1146" d="M82 164v1311h164v-1311h-164zM246 0v164h655v-164h-655zM492 1639v164h164v-164h-164zM656 1803v164h164v-164h-164zM901 164v1311h164v-1311h-164z" />
<glyph unicode="&#xdb;" horiz-adv-x="1146" d="M82 164v1311h164v-1311h-164zM246 0v164h655v-164h-655zM328 1639v164h164v-164h-164zM492 1803v164h164v-164h-164zM656 1639v164h163v-164h-163zM901 164v1311h164v-1311h-164z" />
<glyph unicode="&#xdc;" horiz-adv-x="1146" d="M82 164v1311h164v-1311h-164zM246 0v164h655v-164h-655zM328 1639v164h164v-164h-164zM656 1639v164h163v-164h-163zM901 164v1311h164v-1311h-164z" />
<glyph unicode="&#xdd;" horiz-adv-x="1310" d="M82 1147v328h164v-328h-164zM246 983v164h164v-164h-164zM410 819v164h163v-164h-163zM573 0v819h164v-819h-164zM574 1639v164h164v-164h-164zM737 819v164h164v-164h-164zM738 1803v164h164v-164h-164zM901 983v164h164v-164h-164zM1065 1147v328h164v-328h-164z" />
<glyph unicode="&#xde;" horiz-adv-x="1146" d="M82 0v1475h164v-328h655v-164h164v-491h-164v-164h-655v-328h-164zM246 492h655v491h-655v-491z" />
<glyph unicode="&#xdf;" d="M82 0v1311h164v-1311h-164zM246 1311v164h491v-164h-491zM573 0v164h164v-164h-164zM573 655v164h164v-164h-164zM737 164v491h164v-491h-164zM737 819v492h164v-492h-164z" />
<glyph unicode="&#xe0;" d="M82 164v328h164v-328h491v328h-491v163h491v164h-491v164h491v-164h164v-819h-655v164h-164zM246 1311v164h164v-164h-164zM410 1147v164h164v-164h-164z" />
<glyph unicode="&#xe1;" d="M82 164v328h164v-328h491v328h-491v163h491v164h-491v164h491v-164h164v-819h-655v164h-164zM410 1147v164h164v-164h-164zM574 1311v164h164v-164h-164z" />
<glyph unicode="&#xe2;" d="M82 164v328h164v-328h491v328h-491v163h491v164h-491v164h491v-164h164v-819h-655v164h-164zM246 1147v164h164v-164h-164zM410 1311v164h164v-164h-164zM574 1147v164h163v-164h-163z" />
<glyph unicode="&#xe3;" d="M82 164v328h164v-328h491v328h-491v163h491v164h-491v164h491v-164h164v-819h-655v164h-164zM164 1311v164h328v-164h-328zM492 1147v164h327v-164h-327z" />
<glyph unicode="&#xe4;" d="M82 164v328h164v-328h491v328h-491v163h491v164h-491v164h491v-164h164v-819h-655v164h-164zM246 1147v164h164v-164h-164zM574 1147v164h163v-164h-163z" />
<glyph unicode="&#xe5;" d="M82 164v328h164v-328h491v328h-491v163h491v164h-491v164h491v-164h164v-819h-655v164h-164zM246 1311v164h164v-164h-164zM410 1147v164h164v-164h-164zM410 1475v163h164v-163h-164zM574 1311v164h163v-164h-163z" />
<glyph unicode="&#xe6;" horiz-adv-x="1638" d="M82 164v328h164v-328h491v328h-491v163h491v164h-491v164h491v-164h164v164h492v-164h163v-327h-655v-328h492v-164h-1147v164h-164zM901 655h492v164h-492v-164zM1393 164v164h163v-164h-163z" />
<glyph unicode="&#xe7;" d="M82 164v655h164v-655h-164zM246 0v164h491v-164h-491zM246 -164h328v-164h-328v164zM246 819v164h491v-164h-491zM574 0h163v-164h-163v164zM737 164v164h164v-164h-164zM737 655v164h164v-164h-164z" />
<glyph unicode="&#xe8;" d="M82 164v655h164v-164h491v164h-491v164h491v-164h164v-327h-655v-328h491v-164h-491v164h-164zM246 1311v164h164v-164h-164zM410 1147v164h164v-164h-164zM737 164v164h164v-164h-164z" />
<glyph unicode="&#xe9;" d="M82 164v655h164v-164h491v164h-491v164h491v-164h164v-327h-655v-328h491v-164h-491v164h-164zM410 1147v164h164v-164h-164zM574 1311v164h164v-164h-164zM737 164v164h164v-164h-164z" />
<glyph unicode="&#xea;" d="M82 164v655h164v-164h491v164h-491v164h491v-164h164v-327h-655v-328h491v-164h-491v164h-164zM246 1147v164h164v-164h-164zM410 1311v164h164v-164h-164zM574 1147v164h163v-164h-163zM737 164v164h164v-164h-164z" />
<glyph unicode="&#xeb;" d="M82 164v655h164v-164h491v164h-491v164h491v-164h164v-327h-655v-328h491v-164h-491v164h-164zM246 1147v164h164v-164h-164zM574 1147v164h163v-164h-163zM737 164v164h164v-164h-164z" />
<glyph unicode="&#xec;" horiz-adv-x="327" d="M-80 1311v164h164v-164h-164zM82 0v983h164v-983h-164zM84 1147v164h164v-164h-164z" />
<glyph unicode="&#xed;" horiz-adv-x="327" d="M82 0v983h164v-983h-164zM82 1147v164h164v-164h-164zM246 1311v164h164v-164h-164z" />
<glyph unicode="&#xee;" horiz-adv-x="327" d="M-80 1147v164h164v-164h-164zM82 0v983h164v-983h-164zM84 1311v164h164v-164h-164zM248 1147v164h163v-164h-163z" />
<glyph unicode="&#xef;" horiz-adv-x="327" d="M-80 1147v164h164v-164h-164zM82 0v983h164v-983h-164zM248 1147v164h163v-164h-163z" />
<glyph unicode="&#xf0;" d="M82 164v491h164v164h491v328h164v-983h-164v-164h-491v164h491v491h-491v-491h-164zM82 1311v164h164v-164h-164zM246 1147v164h491v-164h-491z" />
<glyph unicode="&#xf1;" d="M82 0v983h164v-164h164v-164h-164v-655h-164zM164 1311v164h328v-164h-328zM410 819v164h327v-164h164v-819h-164v819h-327zM492 1147v164h327v-164h-327z" />
<glyph unicode="&#xf2;" d="M82 164v655h164v-655h-164zM246 0v164h491v-164h-491zM246 819v164h491v-164h-491zM246 1311v164h164v-164h-164zM410 1147v164h164v-164h-164zM737 164v655h164v-655h-164z" />
<glyph unicode="&#xf3;" d="M82 164v655h164v-655h-164zM246 0v164h491v-164h-491zM246 819v164h491v-164h-491zM410 1147v164h164v-164h-164zM574 1311v164h164v-164h-164zM737 164v655h164v-655h-164z" />
<glyph unicode="&#xf4;" d="M82 164v655h164v-655h-164zM246 0v164h491v-164h-491zM246 819v164h491v-164h-491zM246 1147v164h164v-164h-164zM410 1311v164h164v-164h-164zM574 1147v164h163v-164h-163zM737 164v655h164v-655h-164z" />
<glyph unicode="&#xf5;" d="M82 164v655h164v-655h-164zM164 1311v164h328v-164h-328zM246 0v164h491v-164h-491zM246 819v164h491v-164h-491zM492 1147v164h327v-164h-327zM737 164v655h164v-655h-164z" />
<glyph unicode="&#xf6;" d="M82 164v655h164v-655h-164zM246 0v164h491v-164h-491zM246 819v164h491v-164h-491zM246 1147v164h164v-164h-164zM574 1147v164h163v-164h-163zM737 164v655h164v-655h-164z" />
<glyph unicode="&#xf7;" d="M82 492v163h819v-163h-819zM410 164v164h164v-164h-164zM410 819v164h164v-164h-164z" />
<glyph unicode="&#xf8;" d="M82 164v655h164v-655h491v-164h-164v-164h-163v164h-164v164h-164zM246 819v164h164v164h163v-164h164v-164h164v-655h-164v655h-491z" />
<glyph unicode="&#xf9;" d="M82 164v819h164v-819h327v-164h-327v164h-164zM246 1311v164h164v-164h-164zM410 1147v164h164v-164h-164zM573 164v164h164v655h164v-983h-164v164h-164z" />
<glyph unicode="&#xfa;" d="M82 164v819h164v-819h327v-164h-327v164h-164zM410 1147v164h164v-164h-164zM573 164v164h164v655h164v-983h-164v164h-164zM574 1311v164h164v-164h-164z" />
<glyph unicode="&#xfb;" d="M82 164v819h164v-819h327v-164h-327v164h-164zM246 1147v164h164v-164h-164zM410 1311v164h164v-164h-164zM573 164v164h164v655h164v-983h-164v164h-164zM574 1147v164h163v-164h-163z" />
<glyph unicode="&#xfc;" d="M82 164v819h164v-819h327v-164h-327v164h-164zM246 1147v164h164v-164h-164zM573 164v164h164v655h164v-983h-164v164h-164zM574 1147v164h163v-164h-163z" />
<glyph unicode="&#xfd;" horiz-adv-x="819" d="M-82 -164h328v-164h-328v164zM82 328v655h164v-655h327v-164h-163v-328h-164v492h-164zM328 1147v164h164v-164h-164zM492 1311v164h164v-164h-164zM573 328v655h164v-655h-164z" />
<glyph unicode="&#xfe;" d="M82 -492v1967h164v-492h491v-164h164v-655h-164v655h-491v-655h491v-164h-491v-492h-164z" />
<glyph unicode="&#xff;" horiz-adv-x="819" d="M-82 -164h328v-164h-328v164zM82 328v655h164v-655h327v-164h-163v-328h-164v492h-164zM164 1147v164h164v-164h-164zM492 1147v164h163v-164h-163zM573 328v655h164v-655h-164z" />
<glyph unicode="&#x100;" horiz-adv-x="1310" d="M82 0v328h164v-328h-164zM246 328v491h164v-327h491v327h-164v328h-164v328h164v-328h164v-328h164v-491h164v-328h-164v328h-819zM328 1639v164h655v-164h-655zM410 819v328h163v-328h-163z" />
<glyph unicode="&#x101;" d="M82 164v328h164v-328h491v328h-491v163h491v164h-491v164h491v-164h164v-819h-655v164h-164zM164 1147v164h655v-164h-655z" />
<glyph unicode="&#x102;" horiz-adv-x="1310" d="M82 0v328h164v-328h-164zM246 328v491h164v-327h491v327h-164v328h-164v328h164v-328h164v-328h164v-491h164v-328h-164v328h-819zM328 1803v164h164v-164h-164zM410 819v328h163v-328h-163zM492 1639v164h327v-164h-327zM819 1803v164h164v-164h-164z" />
<glyph unicode="&#x103;" d="M82 164v328h164v-328h491v328h-491v163h491v164h-491v164h491v-164h164v-819h-655v164h-164zM164 1311v164h164v-164h-164zM328 1147v164h327v-164h-327zM655 1311v164h164v-164h-164z" />
<glyph unicode="&#x104;" horiz-adv-x="1310" d="M82 0v328h164v-328h-164zM246 328v491h164v-327h491v327h-164v328h-164v328h164v-328h164v-328h164v-491h164v-328h-164v328h-819zM410 819v328h163v-328h-163zM1065 0h164v-164h-164v164zM1229 -164h327v-164h-327v164z" />
<glyph unicode="&#x105;" d="M82 164v328h164v-328h491v328h-491v163h491v164h-491v164h491v-164h164v-819h-655v164h-164zM410 0h164v-164h-164v164zM574 -164h327v-164h-327v164z" />
<glyph unicode="&#x106;" horiz-adv-x="1146" d="M82 164v1147h164v-1147h-164zM246 0v164h655v-164h-655zM246 1311v164h655v-164h-655zM492 1639v164h164v-164h-164zM656 1803v164h164v-164h-164zM901 164v164h164v-164h-164zM901 1147v164h164v-164h-164z" />
<glyph unicode="&#x107;" d="M82 164v655h164v-655h-164zM246 0v164h491v-164h-491zM246 819v164h491v-164h-491zM410 1147v164h164v-164h-164zM574 1311v164h164v-164h-164zM737 164v164h164v-164h-164zM737 655v164h164v-164h-164z" />
<glyph unicode="&#x108;" horiz-adv-x="1146" d="M82 164v1147h164v-1147h-164zM246 0v164h655v-164h-655zM246 1311v164h655v-164h-655zM328 1639v164h164v-164h-164zM492 1803v164h164v-164h-164zM656 1639v164h163v-164h-163zM901 164v164h164v-164h-164zM901 1147v164h164v-164h-164z" />
<glyph unicode="&#x109;" d="M82 164v655h164v-655h-164zM246 0v164h491v-164h-491zM246 819v164h491v-164h-491zM246 1147v164h164v-164h-164zM410 1311v164h164v-164h-164zM574 1147v164h163v-164h-163zM737 164v164h164v-164h-164zM737 655v164h164v-164h-164z" />
<glyph unicode="&#x10a;" horiz-adv-x="1146" d="M82 164v1147h164v-1147h-164zM246 0v164h655v-164h-655zM246 1311v164h655v-164h-655zM492 1639v164h164v-164h-164zM901 164v164h164v-164h-164zM901 1147v164h164v-164h-164z" />
<glyph unicode="&#x10b;" d="M82 164v655h164v-655h-164zM246 0v164h491v-164h-491zM246 819v164h491v-164h-491zM410 1147v164h164v-164h-164zM737 164v164h164v-164h-164zM737 655v164h164v-164h-164z" />
<glyph unicode="&#x10c;" horiz-adv-x="1146" d="M82 164v1147h164v-1147h-164zM246 0v164h655v-164h-655zM246 1311v164h655v-164h-655zM328 1803v164h164v-164h-164zM492 1639v164h164v-164h-164zM656 1803v164h163v-164h-163zM901 164v164h164v-164h-164zM901 1147v164h164v-164h-164z" />
<glyph unicode="&#x10d;" d="M82 164v655h164v-655h-164zM246 0v164h491v-164h-491zM246 819v164h491v-164h-491zM246 1311v164h164v-164h-164zM410 1147v164h164v-164h-164zM574 1311v164h163v-164h-163zM737 164v164h164v-164h-164zM737 655v164h164v-164h-164z" />
<glyph unicode="&#x10e;" horiz-adv-x="1146" d="M82 0v1475h655v-164h164v-164h164v-819h-164v819h-164v164h-491v-1147h491v-164h-655zM328 1803v164h164v-164h-164zM492 1639v164h164v-164h-164zM656 1803v164h163v-164h-163zM737 164v164h164v-164h-164z" />
<glyph unicode="&#x10f;" horiz-adv-x="1474" d="M82 164v655h164v164h491v492h164v-1475h-655v164h491v655h-491v-655h-164zM1065 1147v164h164v-164h-164zM1229 1311v327h164v-327h-164z" />
<glyph unicode="&#x110;" horiz-adv-x="1310" d="M82 655v164h164v656h655v-164h164v-164h164v-819h-164v819h-164v164h-491v-492h163v-164h-163v-491h491v-164h-655v655h-164zM901 164v164h164v-164h-164z" />
<glyph unicode="&#x111;" horiz-adv-x="1146" d="M82 164v655h164v-655h491v655h-491v164h491v164h-164v164h164v164h164v-164h164v-164h-164v-1147h-655v164h-164z" />
<glyph unicode="&#x112;" d="M82 0v1475h819v-164h-655v-492h491v-164h-491v-491h655v-164h-819zM164 1639v164h655v-164h-655z" />
<glyph unicode="&#x113;" d="M82 164v655h164v-164h491v164h-491v164h491v-164h164v-327h-655v-328h491v-164h-491v164h-164zM164 1147v164h655v-164h-655zM737 164v164h164v-164h-164z" />
<glyph unicode="&#x114;" d="M82 0v1475h819v-164h-655v-492h491v-164h-491v-491h655v-164h-819zM164 1803v164h164v-164h-164zM328 1639v164h327v-164h-327zM655 1803v164h164v-164h-164z" />
<glyph unicode="&#x115;" d="M82 164v655h164v-164h491v164h-491v164h491v-164h164v-327h-655v-328h491v-164h-491v164h-164zM164 1311v164h164v-164h-164zM328 1147v164h327v-164h-327zM655 1311v164h164v-164h-164zM737 164v164h164v-164h-164z" />
<glyph unicode="&#x116;" d="M82 0v1475h819v-164h-655v-492h491v-164h-491v-491h655v-164h-819zM410 1639v164h164v-164h-164z" />
<glyph unicode="&#x117;" d="M82 164v655h164v-164h491v164h-491v164h491v-164h164v-327h-655v-328h491v-164h-491v164h-164zM410 1147v164h164v-164h-164zM737 164v164h164v-164h-164z" />
<glyph unicode="&#x118;" d="M82 0v1475h819v-164h-655v-492h491v-164h-491v-491h655v-164h-819zM410 0h164v-164h-164v164zM574 -164h327v-164h-327v164z" />
<glyph unicode="&#x119;" d="M82 164v655h164v-164h491v164h-491v164h491v-164h164v-327h-655v-328h491v-164h-491v164h-164zM410 0h164v-164h-164v164zM574 -164h327v-164h-327v164zM737 164v164h164v-164h-164z" />
<glyph unicode="&#x11a;" d="M82 0v1475h819v-164h-655v-492h491v-164h-491v-491h655v-164h-819zM246 1803v164h164v-164h-164zM410 1639v164h164v-164h-164zM574 1803v164h163v-164h-163z" />
<glyph unicode="&#x11b;" d="M82 164v655h164v-164h491v164h-491v164h491v-164h164v-327h-655v-328h491v-164h-491v164h-164zM246 1311v164h164v-164h-164zM410 1147v164h164v-164h-164zM574 1311v164h163v-164h-163zM737 164v164h164v-164h-164z" />
<glyph unicode="&#x11c;" horiz-adv-x="1146" d="M82 164v1147h164v-1147h491v-164h-491v164h-164zM246 1311v164h655v-164h164v-164h-164v164h-655zM328 1639v164h164v-164h-164zM492 1803v164h164v-164h-164zM573 655v164h492v-819h-164v164h-164v164h164v327h-328zM656 1639v164h163v-164h-163z" />
<glyph unicode="&#x11d;" d="M82 164v655h164v-655h491v655h-491v164h655v-1147h-164v164h-491v164h-164zM82 -164h655v-164h-655v164zM246 1147v164h164v-164h-164zM410 1311v164h164v-164h-164zM574 1147v164h163v-164h-163z" />
<glyph unicode="&#x11e;" horiz-adv-x="1146" d="M82 164v1147h164v-1147h491v-164h-491v164h-164zM246 1311v164h655v-164h164v-164h-164v164h-655zM246 1803v164h164v-164h-164zM410 1639v164h327v-164h-327zM573 655v164h492v-819h-164v164h-164v164h164v327h-328zM737 1803v164h164v-164h-164z" />
<glyph unicode="&#x11f;" d="M82 164v655h164v-655h491v655h-491v164h655v-1147h-164v164h-491v164h-164zM82 -164h655v-164h-655v164zM164 1311v164h164v-164h-164zM328 1147v164h327v-164h-327zM655 1311v164h164v-164h-164z" />
<glyph unicode="&#x120;" horiz-adv-x="1146" d="M82 164v1147h164v-1147h491v-164h-491v164h-164zM246 1311v164h655v-164h164v-164h-164v164h-655zM492 1639v164h164v-164h-164zM573 655v164h492v-819h-164v164h-164v164h164v327h-328z" />
<glyph unicode="&#x121;" d="M82 164v655h164v-655h491v655h-491v164h655v-1147h-164v164h-491v164h-164zM82 -164h655v-164h-655v164zM410 1147v164h164v-164h-164z" />
<glyph unicode="&#x122;" horiz-adv-x="1146" d="M82 164v1147h164v-1147h491v-164h-491v164h-164zM246 1311v164h655v-164h164v-164h-164v164h-655zM328 -328h164v-164h-164v164zM492 -164h164v-164h-164v164zM573 655v164h492v-819h-164v164h-164v164h164v327h-328z" />
<glyph unicode="&#x123;" d="M82 164v655h164v-655h491v655h-491v164h655v-1147h-164v164h-491v164h-164zM82 -164h655v-164h-655v164zM410 1146v164h164v-164h-164zM574 1310v164h164v-164h-164z" />
<glyph unicode="&#x124;" horiz-adv-x="1146" d="M82 0v1475h164v-656h655v656h164v-1475h-164v655h-655v-655h-164zM328 1639v164h164v-164h-164zM492 1803v164h164v-164h-164zM656 1639v164h163v-164h-163z" />
<glyph unicode="&#x125;" d="M82 0v1475h164v-656h164v-164h-164v-655h-164zM246 1639v164h164v-164h-164zM410 819v164h327v-164h164v-819h-164v819h-327zM410 1803v164h164v-164h-164zM574 1639v164h163v-164h-163z" />
<glyph unicode="&#x126;" horiz-adv-x="1146" d="M82 0v1475h164v-656h655v656h164v-1475h-164v655h-655v-655h-164zM246 1639v164h655v-164h-655z" />
<glyph unicode="&#x127;" horiz-adv-x="1146" d="M82 1147v164h164v164h164v-164h163v-164h-163v-328h163v-164h-163v-655h-164v1147h-164zM573 819v164h328v-164h164v-819h-164v819h-328z" />
<glyph unicode="&#x128;" horiz-adv-x="327" d="M-162 1803v164h328v-164h-328zM82 0v1475h164v-1475h-164zM166 1639v164h327v-164h-327z" />
<glyph unicode="&#x129;" horiz-adv-x="327" d="M-162 1311v164h328v-164h-328zM82 0v983h164v-983h-164zM166 1147v164h327v-164h-327z" />
<glyph unicode="&#x12a;" horiz-adv-x="327" d="M-162 1639v164h655v-164h-655zM82 0v1475h164v-1475h-164z" />
<glyph unicode="&#x12b;" horiz-adv-x="327" d="M-162 1147v164h655v-164h-655zM82 0v983h164v-983h-164z" />
<glyph unicode="&#x12c;" horiz-adv-x="327" d="M-162 1803v164h164v-164h-164zM2 1639v164h327v-164h-327zM82 0v1475h164v-1475h-164zM329 1803v164h164v-164h-164z" />
<glyph unicode="&#x12d;" horiz-adv-x="327" d="M-162 1311v164h164v-164h-164zM2 1147v164h327v-164h-327zM82 0v983h164v-983h-164zM329 1311v164h164v-164h-164z" />
<glyph unicode="&#x12e;" horiz-adv-x="327" d="M82 0h164v-164h-164v164zM82 0v1475h164v-1475h-164zM246 -164h327v-164h-327v164z" />
<glyph unicode="&#x12f;" horiz-adv-x="327" d="M82 0h164v-164h-164v164zM82 0v983h164v-983h-164zM82 1311v164h164v-164h-164zM246 -164h327v-164h-327v164z" />
<glyph unicode="&#x130;" horiz-adv-x="327" d="M82 0v1475h164v-1475h-164zM82 1639v164h164v-164h-164z" />
<glyph unicode="&#x131;" horiz-adv-x="327" d="M82 0v983h164v-983h-164z" />
<glyph unicode="&#x132;" horiz-adv-x="1146" d="M82 0v1475h164v-1475h-164zM410 164v328h164v-328h-164zM574 0v164h327v-164h-327zM901 164v1311h164v-1311h-164z" />
<glyph unicode="&#x133;" horiz-adv-x="655" d="M82 0v983h164v-983h-164zM82 1311v164h164v-164h-164zM246 -328h164v-164h-164v164zM410 -328v1311h164v-1311h-164zM410 1311v164h164v-164h-164z" />
<glyph unicode="&#x134;" horiz-adv-x="819" d="M82 164v328h164v-328h-164zM246 0v164h327v-164h-327zM410 1639v164h164v-164h-164zM573 164v1311h164v-1311h-164zM574 1803v164h164v-164h-164zM738 1639v164h163v-164h-163z" />
<glyph unicode="&#x135;" horiz-adv-x="327" d="M-82 -328h164v-164h-164v164zM-80 1147v164h164v-164h-164zM82 -328v1311h164v-1311h-164zM84 1311v164h164v-164h-164zM248 1147v164h163v-164h-163z" />
<glyph unicode="&#x136;" horiz-adv-x="1146" d="M82 0v1475h164v-492h164v-328h163v-163h164v-164h164v-164h164v-164h-164v164h-164v164h-164v164h-163v163h-164v-655h-164zM328 -328h164v-164h-164v164zM410 983v164h163v-164h-163zM492 -164h164v-164h-164v164zM573 1147v164h164v-164h-164zM737 1311v164h164v-164 h-164z" />
<glyph unicode="&#x137;" d="M82 0v1475h164v-820h164v-163h163v-164h164v-164h164v-164h-164v164h-164v164h-163v164h-164v-492h-164zM246 -328h164v-164h-164v164zM410 -164h164v-164h-164v164zM410 655v164h163v-164h-163zM573 819v164h164v-164h-164z" />
<glyph unicode="&#x138;" d="M82 0v983h164v-328h164v-163h163v-164h164v-164h164v-164h-164v164h-164v164h-163v164h-164v-492h-164zM410 655v164h163v-164h-163zM573 819v164h164v-164h-164z" />
<glyph unicode="&#x139;" d="M82 0v1475h164v-1311h655v-164h-819zM82 1639v164h164v-164h-164zM246 1803v164h164v-164h-164z" />
<glyph unicode="&#x13a;" horiz-adv-x="327" d="M82 0v1475h164v-1475h-164zM82 1639v164h164v-164h-164zM246 1803v164h164v-164h-164z" />
<glyph unicode="&#x13b;" d="M82 0v1475h164v-1311h655v-164h-819zM246 -328h164v-164h-164v164zM410 -164h164v-164h-164v164z" />
<glyph unicode="&#x13c;" horiz-adv-x="327" d="M-80 -328h164v-164h-164v164zM82 0v1475h164v-1475h-164zM84 -164h164v-164h-164v164z" />
<glyph unicode="&#x13d;" d="M82 0v1475h164v-1311h655v-164h-819zM410 1147v164h164v-164h-164zM574 1311v327h164v-327h-164z" />
<glyph unicode="&#x13e;" horiz-adv-x="819" d="M82 0v1475h164v-1475h-164zM410 1147v164h164v-164h-164zM574 1311v327h164v-327h-164z" />
<glyph unicode="&#x13f;" d="M82 0v1475h164v-1311h655v-164h-819zM410 655v164h164v-164h-164z" />
<glyph unicode="&#x140;" horiz-adv-x="655" d="M82 0v1475h164v-1475h-164zM410 655v164h164v-164h-164z" />
<glyph unicode="&#x141;" horiz-adv-x="1146" d="M82 573v164h164v738h164v-574h163v-164h-163v-573h655v-164h-819v573h-164z" />
<glyph unicode="&#x142;" horiz-adv-x="655" d="M82 573v164h164v738h164v-574h163v-164h-163v-737h-164v573h-164z" />
<glyph unicode="&#x143;" horiz-adv-x="1146" d="M82 0v1475h164v-164h164v-328h163v-328h164v-163h164v983h164v-1475h-164v164h-164v328h-164v163h-163v328h-164v-983h-164zM492 1639v164h164v-164h-164zM656 1803v164h164v-164h-164z" />
<glyph unicode="&#x144;" d="M82 0v983h164v-164h164v-164h-164v-655h-164zM410 819v164h327v-164h164v-819h-164v819h-327zM410 1147v164h164v-164h-164zM574 1311v164h164v-164h-164z" />
<glyph unicode="&#x145;" horiz-adv-x="1146" d="M82 0v1475h164v-164h164v-328h163v-328h164v-163h164v983h164v-1475h-164v164h-164v328h-164v163h-163v328h-164v-983h-164zM328 -328h164v-164h-164v164zM492 -164h164v-164h-164v164z" />
<glyph unicode="&#x146;" d="M82 0v983h164v-164h164v-164h-164v-655h-164zM246 -328h164v-164h-164v164zM410 -164h164v-164h-164v164zM410 819v164h327v-164h164v-819h-164v819h-327z" />
<glyph unicode="&#x147;" horiz-adv-x="1146" d="M82 0v1475h164v-164h164v-328h163v-328h164v-163h164v983h164v-1475h-164v164h-164v328h-164v163h-163v328h-164v-983h-164zM328 1803v164h164v-164h-164zM492 1639v164h164v-164h-164zM656 1803v164h163v-164h-163z" />
<glyph unicode="&#x148;" d="M82 0v983h164v-164h164v-164h-164v-655h-164zM246 1311v164h164v-164h-164zM410 819v164h327v-164h164v-819h-164v819h-327zM410 1147v164h164v-164h-164zM574 1311v164h163v-164h-163z" />
<glyph unicode="&#x149;" horiz-adv-x="1392" d="M82 1147v164h164v-164h-164zM246 1311v327h164v-327h-164zM492 0v983h164v-164h164v-164h-164v-655h-164zM820 819v164h327v-164h164v-819h-164v819h-327z" />
<glyph unicode="&#x14a;" horiz-adv-x="1146" d="M82 0v1475h164v-164h164v-164h-164v-1147h-164zM410 1311v164h491v-164h-491zM737 -164h164v-164h-164v164zM901 -164v1475h164v-1475h-164z" />
<glyph unicode="&#x14b;" d="M82 0v983h164v-164h164v-164h-164v-655h-164zM410 819v164h327v-164h-327zM573 -164h164v-164h-164v164zM737 -164v983h164v-983h-164z" />
<glyph unicode="&#x14c;" horiz-adv-x="1146" d="M82 164v1147h164v-1147h-164zM246 0v164h655v-164h-655zM246 1311v164h655v-164h-655zM246 1639v164h655v-164h-655zM901 164v1147h164v-1147h-164z" />
<glyph unicode="&#x14d;" d="M82 164v655h164v-655h-164zM164 1147v164h655v-164h-655zM246 0v164h491v-164h-491zM246 819v164h491v-164h-491zM737 164v655h164v-655h-164z" />
<glyph unicode="&#x14e;" horiz-adv-x="1146" d="M82 164v1147h164v-1147h-164zM246 0v164h655v-164h-655zM246 1311v164h655v-164h-655zM246 1803v164h164v-164h-164zM410 1639v164h327v-164h-327zM737 1803v164h164v-164h-164zM901 164v1147h164v-1147h-164z" />
<glyph unicode="&#x14f;" d="M82 164v655h164v-655h-164zM164 1311v164h164v-164h-164zM246 0v164h491v-164h-491zM246 819v164h491v-164h-491zM328 1147v164h327v-164h-327zM655 1311v164h164v-164h-164zM737 164v655h164v-655h-164z" />
<glyph unicode="&#x150;" horiz-adv-x="1146" d="M82 164v1147h164v-1147h-164zM246 0v164h655v-164h-655zM246 1311v164h655v-164h-655zM328 1639v164h164v-164h-164zM492 1803v164h164v-164h-164zM656 1639v164h163v-164h-163zM819 1803v164h164v-164h-164zM901 164v1147h164v-1147h-164z" />
<glyph unicode="&#x151;" d="M82 164v655h164v-655h-164zM246 0v164h491v-164h-491zM246 819v164h491v-164h-491zM246 1147v164h164v-164h-164zM410 1311v164h164v-164h-164zM574 1147v164h163v-164h-163zM737 164v655h164v-655h-164zM737 1311v164h164v-164h-164z" />
<glyph unicode="&#x152;" horiz-adv-x="1802" d="M82 164v1147h164v-1147h655v1147h-655v164h1474v-164h-655v-492h491v-164h-491v-491h655v-164h-1474v164h-164z" />
<glyph unicode="&#x153;" horiz-adv-x="1638" d="M82 164v655h164v-655h491v-164h-491v164h-164zM246 819v164h491v-164h164v164h492v-164h163v-327h-655v-328h492v-164h-492v164h-164v655h-491zM901 655v164h492v-164h-492zM1393 164v164h163v-164h-163z" />
<glyph unicode="&#x154;" horiz-adv-x="1146" d="M82 0v1475h819v-164h164v-492h-164v492h-655v-492h655v-164h-655v-655h-164zM492 1639v164h164v-164h-164zM656 1803v164h164v-164h-164zM901 0v655h164v-655h-164z" />
<glyph unicode="&#x155;" horiz-adv-x="491" d="M82 0v983h328v-164h-164v-819h-164zM82 1147v164h164v-164h-164zM246 1311v164h164v-164h-164z" />
<glyph unicode="&#x156;" horiz-adv-x="1146" d="M82 0v1475h819v-164h164v-492h-164v492h-655v-492h655v-164h-655v-655h-164zM328 -328h164v-164h-164v164zM492 -164h164v-164h-164v164zM901 0v655h164v-655h-164z" />
<glyph unicode="&#x157;" horiz-adv-x="491" d="M-80 -328h164v-164h-164v164zM82 0v983h328v-164h-164v-819h-164zM84 -164h164v-164h-164v164z" />
<glyph unicode="&#x158;" horiz-adv-x="1146" d="M82 0v1475h819v-164h164v-492h-164v492h-655v-492h655v-164h-655v-655h-164zM328 1803v164h164v-164h-164zM492 1639v164h164v-164h-164zM656 1803v164h163v-164h-163zM901 0v655h164v-655h-164z" />
<glyph unicode="&#x159;" horiz-adv-x="491" d="M2 1311v164h164v-164h-164zM82 0v983h328v-164h-164v-819h-164zM166 1147v164h164v-164h-164zM330 1311v164h163v-164h-163z" />
<glyph unicode="&#x15a;" d="M82 164v164h164v-164h-164zM82 819v492h164v-492h-164zM246 0v164h491v-164h-491zM246 655v164h491v-164h-491zM246 1311v164h491v-164h-491zM410 1639v164h164v-164h-164zM574 1803v164h164v-164h-164zM737 164v491h164v-491h-164zM737 1147v164h164v-164h-164z" />
<glyph unicode="&#x15b;" horiz-adv-x="819" d="M82 164v164h164v-164h-164zM82 655v164h164v-164h-164zM246 0v164h327v-164h-327zM246 492v163h164v-163h-164zM246 819v164h327v-164h-327zM328 1147v164h164v-164h-164zM410 328v164h163v-164h-163zM492 1311v164h164v-164h-164zM573 164v164h164v-164h-164zM573 655 v164h164v-164h-164z" />
<glyph unicode="&#x15c;" d="M82 164v164h164v-164h-164zM82 819v492h164v-492h-164zM246 0v164h491v-164h-491zM246 655v164h491v-164h-491zM246 1311v164h491v-164h-491zM246 1639v164h164v-164h-164zM410 1803v164h164v-164h-164zM574 1639v164h163v-164h-163zM737 164v491h164v-491h-164z M737 1147v164h164v-164h-164z" />
<glyph unicode="&#x15d;" horiz-adv-x="819" d="M82 164v164h164v-164h-164zM82 655v164h164v-164h-164zM164 1147v164h164v-164h-164zM246 0v164h327v-164h-327zM246 492v163h164v-163h-164zM246 819v164h327v-164h-327zM328 1311v164h164v-164h-164zM410 328v164h163v-164h-163zM492 1147v164h163v-164h-163zM573 164 v164h164v-164h-164zM573 655v164h164v-164h-164z" />
<glyph unicode="&#x15e;" d="M82 -164h328v-164h-328v164zM82 164v164h164v-164h-164zM82 819v492h164v-492h-164zM246 0v164h491v-164h-491zM246 655v164h491v-164h-491zM246 1311v164h491v-164h-491zM410 0h163v-164h-163v164zM737 164v491h164v-491h-164zM737 1147v164h164v-164h-164z" />
<glyph unicode="&#x15f;" horiz-adv-x="819" d="M2 -164h328v-164h-328v164zM82 164v164h164v-164h-164zM82 655v164h164v-164h-164zM246 0v164h327v-164h-327zM246 492v163h164v-163h-164zM246 819v164h327v-164h-327zM330 0h163v-164h-163v164zM410 328v164h163v-164h-163zM573 164v164h164v-164h-164zM573 655v164 h164v-164h-164z" />
<glyph unicode="&#x160;" d="M82 164v164h164v-164h-164zM82 819v492h164v-492h-164zM246 0v164h491v-164h-491zM246 655v164h491v-164h-491zM246 1311v164h491v-164h-491zM246 1803v164h164v-164h-164zM410 1639v164h164v-164h-164zM574 1803v164h163v-164h-163zM737 164v491h164v-491h-164z M737 1147v164h164v-164h-164z" />
<glyph unicode="&#x161;" horiz-adv-x="819" d="M82 164v164h164v-164h-164zM82 655v164h164v-164h-164zM164 1311v164h164v-164h-164zM246 0v164h327v-164h-327zM246 492v163h164v-163h-164zM246 819v164h327v-164h-327zM328 1147v164h164v-164h-164zM410 328v164h163v-164h-163zM492 1311v164h163v-164h-163zM573 164 v164h164v-164h-164zM573 655v164h164v-164h-164z" />
<glyph unicode="&#x162;" d="M82 1311v164h819v-164h-328v-1311h-163v1311h-328zM246 -164h328v-164h-328v164zM574 0h163v-164h-163v164z" />
<glyph unicode="&#x163;" horiz-adv-x="491" d="M-80 -164h328v-164h-328v164zM82 164v1147h164v-328h164v-164h-164v-655h164v-164h-164v164h-164zM248 0h163v-164h-163v164z" />
<glyph unicode="&#x164;" d="M82 1311v164h819v-164h-328v-1311h-163v1311h-328zM246 1803v164h164v-164h-164zM410 1639v164h164v-164h-164zM574 1803v164h163v-164h-163z" />
<glyph unicode="&#x165;" horiz-adv-x="901" d="M82 164v1147h164v-328h164v-164h-164v-655h164v-164h-164v164h-164zM492 1147v164h164v-164h-164zM656 1311v327h164v-327h-164z" />
<glyph unicode="&#x166;" d="M82 1311v164h819v-164h-328v-492h164v-164h-164v-655h-163v655h-164v164h164v492h-328z" />
<glyph unicode="&#x167;" horiz-adv-x="655" d="M82 410v163h164v738h164v-328h163v-164h-163v-246h163v-163h-163v-246h163v-164h-163v164h-164v246h-164z" />
<glyph unicode="&#x168;" horiz-adv-x="1146" d="M82 164v1311h164v-1311h-164zM246 0v164h655v-164h-655zM246 1803v164h328v-164h-328zM574 1639v164h327v-164h-327zM901 164v1311h164v-1311h-164z" />
<glyph unicode="&#x169;" d="M82 164v819h164v-819h327v-164h-327v164h-164zM164 1311v164h328v-164h-328zM492 1147v164h327v-164h-327zM573 164v164h164v655h164v-983h-164v164h-164z" />
<glyph unicode="&#x16a;" horiz-adv-x="1146" d="M82 164v1311h164v-1311h-164zM246 0v164h655v-164h-655zM246 1639v164h655v-164h-655zM901 164v1311h164v-1311h-164z" />
<glyph unicode="&#x16b;" d="M82 164v819h164v-819h327v-164h-327v164h-164zM164 1147v164h655v-164h-655zM573 164v164h164v655h164v-983h-164v164h-164z" />
<glyph unicode="&#x16c;" horiz-adv-x="1146" d="M82 164v1311h164v-1311h-164zM246 0v164h655v-164h-655zM246 1803v164h164v-164h-164zM410 1639v164h327v-164h-327zM737 1803v164h164v-164h-164zM901 164v1311h164v-1311h-164z" />
<glyph unicode="&#x16d;" d="M82 164v819h164v-819h327v-164h-327v164h-164zM164 1311v164h164v-164h-164zM328 1147v164h327v-164h-327zM573 164v164h164v655h164v-983h-164v164h-164zM655 1311v164h164v-164h-164z" />
<glyph unicode="&#x16e;" horiz-adv-x="1146" d="M82 164v1311h164v-1311h-164zM246 0v164h655v-164h-655zM328 1803v164h164v-164h-164zM492 1639v164h164v-164h-164zM492 1967v163h164v-163h-164zM656 1803v164h163v-164h-163zM901 164v1311h164v-1311h-164z" />
<glyph unicode="&#x16f;" d="M82 164v819h164v-819h327v-164h-327v164h-164zM246 1311v164h164v-164h-164zM410 1147v164h164v-164h-164zM410 1475v163h164v-163h-164zM573 164v164h164v655h164v-983h-164v164h-164zM574 1311v164h163v-164h-163z" />
<glyph unicode="&#x170;" horiz-adv-x="1146" d="M82 164v1311h164v-1311h-164zM246 0v164h655v-164h-655zM328 1639v164h164v-164h-164zM492 1803v164h164v-164h-164zM656 1639v164h163v-164h-163zM819 1803v164h164v-164h-164zM901 164v1311h164v-1311h-164z" />
<glyph unicode="&#x171;" d="M82 164v819h164v-819h327v-164h-327v164h-164zM246 1147v164h164v-164h-164zM410 1311v164h164v-164h-164zM573 164v164h164v655h164v-983h-164v164h-164zM574 1147v164h163v-164h-163zM737 1311v164h164v-164h-164z" />
<glyph unicode="&#x172;" horiz-adv-x="1146" d="M82 164v1311h164v-1311h-164zM246 0v164h655v-164h-655zM574 0h164v-164h-164v164zM738 -164h327v-164h-327v164zM901 164v1311h164v-1311h-164z" />
<glyph unicode="&#x173;" d="M82 164v819h164v-819h327v-164h-327v164h-164zM410 0h164v-164h-164v164zM573 164v164h164v655h164v-983h-164v164h-164zM574 -164h327v-164h-327v164z" />
<glyph unicode="&#x174;" horiz-adv-x="1966" d="M82 1147v328h164v-328h-164zM246 655v492h164v-492h-164zM410 328v327h163v-327h-163zM573 0v328h164v-328h-164zM737 328v327h164v-327h-164zM737 1639v164h164v-164h-164zM901 655v492h164v-492h-164zM901 1803v164h164v-164h-164zM1065 328v327h164v-327h-164z M1065 1639v164h163v-164h-163zM1229 0v328h164v-328h-164zM1393 328v327h163v-327h-163zM1556 655v492h164v-492h-164zM1720 1147v328h164v-328h-164z" />
<glyph unicode="&#x175;" horiz-adv-x="1310" d="M82 328v655h164v-655h-164zM246 0v328h164v-328h-164zM410 328v327h163v-327h-163zM410 1147v164h164v-164h-164zM573 655v328h164v-328h-164zM574 1311v164h164v-164h-164zM737 328v327h164v-327h-164zM738 1147v164h163v-164h-163zM901 0v328h164v-328h-164zM1065 328 v655h164v-655h-164z" />
<glyph unicode="&#x176;" horiz-adv-x="1310" d="M82 1147v328h164v-328h-164zM246 983v164h164v-164h-164zM410 819v164h163v-164h-163zM410 1639v164h164v-164h-164zM573 0v819h164v-819h-164zM574 1803v164h164v-164h-164zM737 819v164h164v-164h-164zM738 1639v164h163v-164h-163zM901 983v164h164v-164h-164z M1065 1147v328h164v-328h-164z" />
<glyph unicode="&#x177;" horiz-adv-x="819" d="M-82 -164h328v-164h-328v164zM82 328v655h164v-655h327v-164h-163v-328h-164v492h-164zM164 1147v164h164v-164h-164zM328 1311v164h164v-164h-164zM492 1147v164h163v-164h-163zM573 328v655h164v-655h-164z" />
<glyph unicode="&#x178;" horiz-adv-x="1310" d="M82 1147v328h164v-328h-164zM246 983v164h164v-164h-164zM410 819v164h163v-164h-163zM410 1639v164h164v-164h-164zM573 0v819h164v-819h-164zM737 819v164h164v-164h-164zM738 1639v164h163v-164h-163zM901 983v164h164v-164h-164zM1065 1147v328h164v-328h-164z" />
<glyph unicode="&#x179;" horiz-adv-x="1310" d="M82 0v328h164v-164h983v-164h-1147zM82 1311v164h1147v-328h-164v164h-983zM246 328v164h164v-164h-164zM410 492v163h163v-163h-163zM573 655v164h164v-164h-164zM574 1639v164h164v-164h-164zM737 819v164h164v-164h-164zM738 1803v164h164v-164h-164zM901 983v164h164 v-164h-164z" />
<glyph unicode="&#x17a;" horiz-adv-x="819" d="M82 0v328h164v-164h491v-164h-655zM82 819v164h655v-328h-164v164h-491zM246 328v164h164v-164h-164zM328 1147v164h164v-164h-164zM410 492v163h163v-163h-163zM492 1311v164h164v-164h-164z" />
<glyph unicode="&#x17b;" horiz-adv-x="1310" d="M82 0v328h164v-164h983v-164h-1147zM82 1311v164h1147v-328h-164v164h-983zM246 328v164h164v-164h-164zM410 492v163h163v-163h-163zM573 655v164h164v-164h-164zM574 1639v164h164v-164h-164zM737 819v164h164v-164h-164zM901 983v164h164v-164h-164z" />
<glyph unicode="&#x17c;" horiz-adv-x="819" d="M82 0v328h164v-164h491v-164h-655zM82 819v164h655v-328h-164v164h-491zM246 328v164h164v-164h-164zM328 1147v164h164v-164h-164zM410 492v163h163v-163h-163z" />
<glyph unicode="&#x17d;" horiz-adv-x="1310" d="M82 0v328h164v-164h983v-164h-1147zM82 1311v164h1147v-328h-164v164h-983zM246 328v164h164v-164h-164zM410 492v163h163v-163h-163zM410 1803v164h164v-164h-164zM573 655v164h164v-164h-164zM574 1639v164h164v-164h-164zM737 819v164h164v-164h-164zM738 1803v164 h163v-164h-163zM901 983v164h164v-164h-164z" />
<glyph unicode="&#x17e;" horiz-adv-x="819" d="M82 0v328h164v-164h491v-164h-655zM82 819v164h655v-328h-164v164h-491zM164 1311v164h164v-164h-164zM246 328v164h164v-164h-164zM328 1147v164h164v-164h-164zM410 492v163h163v-163h-163zM492 1311v164h163v-164h-163z" />
<glyph unicode="&#x17f;" horiz-adv-x="491" d="M82 0v1311h164v-1311h-164zM246 1311v164h164v-164h-164z" />
<glyph unicode="&#x180;" horiz-adv-x="1146" d="M82 1147v164h164v164h164v-164h163v-164h-163v-164h491v-164h164v-655h-164v655h-491v-655h491v-164h-655v1147h-164z" />
<glyph unicode="&#x181;" horiz-adv-x="1146" d="M82 1311v164h819v-164h164v-492h-164v492h-491v-492h491v-164h164v-491h-164v491h-491v-491h491v-164h-655v1311h-164z" />
<glyph unicode="&#x182;" horiz-adv-x="1146" d="M82 0v1475h819v-164h-655v-492h655v-164h164v-491h-164v491h-655v-491h655v-164h-819z" />
<glyph unicode="&#x183;" d="M82 0v1475h655v-164h-491v-328h491v-164h164v-655h-164v655h-491v-655h491v-164h-655z" />
<glyph unicode="&#x186;" horiz-adv-x="1146" d="M82 164h164v164h-164v-164zM82 1147h164v164h-164v-164zM246 0h655v164h-655v-164zM246 1311h655v164h-655v-164zM901 164h164v1147h-164v-1147z" />
<glyph unicode="&#x187;" horiz-adv-x="1310" d="M82 164v1147h164v-1147h655v-164h-655v164h-164zM246 1311v164h655v-164h164v-164h-164v164h-655zM901 164v164h164v-164h-164zM1065 1311v164h164v-164h-164z" />
<glyph unicode="&#x188;" horiz-adv-x="1146" d="M82 164v655h164v-655h491v-164h-491v164h-164zM246 819v164h491v-164h164v-164h-164v164h-491zM737 164v164h164v-164h-164zM901 819v164h164v-164h-164z" />
<glyph unicode="&#x189;" horiz-adv-x="1310" d="M82 655v164h164v656h655v-164h164v-164h164v-819h-164v819h-164v164h-491v-492h163v-164h-163v-491h491v-164h-655v655h-164zM901 164v164h164v-164h-164z" />
<glyph unicode="&#x18a;" horiz-adv-x="1310" d="M82 1311v164h819v-164h164v-164h164v-819h-164v819h-164v164h-491v-1147h491v-164h-655v1311h-164zM901 164v164h164v-164h-164z" />
<glyph unicode="&#x18b;" horiz-adv-x="1146" d="M82 164h164v491h655v-491h-655v-164h819v1475h-819v-164h655v-492h-655v-164h-164v-491z" />
<glyph unicode="&#x18c;" d="M82 164h164v655h491v-655h-491v-164h655v1475h-655v-164h491v-328h-491v-164h-164v-655z" />
<glyph unicode="&#x18e;" d="M82 0h819v1475h-819v-164h655v-492h-491v-164h491v-491h-655v-164z" />
<glyph unicode="&#x18f;" horiz-adv-x="1146" d="M82 164v655h819v492h-655v164h655v-164h164v-1147h-164v491h-655v-491h655v-164h-655v164h-164zM82 1147v164h164v-164h-164z" />
<glyph unicode="&#x190;" d="M82 164h164v491h-164v-491zM82 819h164v492h-164v-492zM246 0h491v164h-491v-164zM246 655h327v164h-327v-164zM246 1311h491v164h-491v-164zM737 164h164v164h-164v-164zM737 1147h164v164h-164v-164z" />
<glyph unicode="&#x191;" d="M-82 -328h164v-164h-164v164zM82 -328v1803h819v-164h-655v-492h491v-164h-491v-983h-164z" />
<glyph unicode="&#x192;" horiz-adv-x="491" d="M-82 -328h164v-164h-164v164zM82 -328v1639h164v-328h164v-164h-164v-1147h-164zM246 1311v164h164v-164h-164z" />
<glyph unicode="&#x19d;" horiz-adv-x="1146" d="M-82 -328h164v-164h-164v164zM82 -328v1803h164v-164h164v-328h163v-328h164v-163h164v983h164v-1475h-164v164h-164v328h-164v163h-163v328h-164v-1311h-164z" />
<glyph unicode="&#x19e;" d="M82 0v983h164v-164h164v-164h-164v-655h-164zM410 819v164h327v-164h164v-1311h-164v1311h-327z" />
<glyph unicode="&#x1a7;" d="M82 164h164v491h-164v-491zM82 1147h164v164h-164v-164zM246 0h491v164h-491v-164zM246 655h491v164h-491v-164zM246 1311h491v164h-491v-164zM737 164h164v164h-164v-164zM737 819h164v492h-164v-492z" />
<glyph unicode="&#x1a8;" horiz-adv-x="819" d="M82 164h164v164h-164v-164zM82 655h164v164h-164v-164zM246 0h327v164h-327v-164zM246 328h163v164h-163v-164zM246 819h327v164h-327v-164zM409 492h164v163h-164v-163zM573 164h164v164h-164v-164zM573 655h164v164h-164v-164z" />
<glyph unicode="&#x1a9;" horiz-adv-x="1146" d="M82 0h983v164h-819v164h-164v-328zM82 1147v328h983v-164h-819v-164h-164zM246 328h164v164h-164v-164zM246 983v164h164v-164h-164zM410 492h163v163h-163v-163zM410 819v164h163v-164h-163zM573 655h164v164h-164v-164z" />
<glyph unicode="&#x1c7;" horiz-adv-x="1802" d="M82 0v1475h164v-1311h655v-164h-819zM1065 164v328h164v-328h-164zM1229 0v164h327v-164h-327zM1556 164v1311h164v-1311h-164z" />
<glyph unicode="&#x1c8;" horiz-adv-x="1310" d="M82 0v1475h164v-1311h655v-164h-819zM901 -328h164v-164h-164v164zM1065 -328v1311h164v-1311h-164zM1065 1311v164h164v-164h-164z" />
<glyph unicode="&#x1c9;" horiz-adv-x="655" d="M82 0v1475h164v-1475h-164zM246 -328h164v-164h-164v164zM410 -328v1311h164v-1311h-164zM410 1311v164h164v-164h-164z" />
<glyph unicode="&#x1ca;" horiz-adv-x="1966" d="M82 0v1475h164v-164h164v-328h163v-328h164v-163h164v983h164v-1475h-164v164h-164v328h-164v163h-163v328h-164v-983h-164zM1229 164v328h164v-328h-164zM1393 0v164h327v-164h-327zM1720 164v1311h164v-1311h-164z" />
<glyph unicode="&#x1cb;" horiz-adv-x="1474" d="M82 0v1475h164v-164h164v-328h163v-328h164v-163h164v983h164v-1475h-164v164h-164v328h-164v163h-163v328h-164v-983h-164zM1065 -328h164v-164h-164v164zM1229 -328v1311h164v-1311h-164zM1229 1311v164h164v-164h-164z" />
<glyph unicode="&#x1cc;" horiz-adv-x="1310" d="M82 0v983h164v-164h164v-164h-164v-655h-164zM410 819v164h327v-164h164v-819h-164v819h-327zM901 -328h164v-164h-164v164zM1065 -328v1311h164v-1311h-164zM1065 1311v164h164v-164h-164z" />
<glyph unicode="&#x1cd;" horiz-adv-x="1310" d="M82 0v328h164v-328h-164zM246 328v491h164v-327h491v327h-164v328h-164v328h164v-328h164v-328h164v-491h164v-328h-164v328h-819zM410 819v328h163v-328h-163zM410 1803v164h164v-164h-164zM574 1639v164h164v-164h-164zM738 1803v164h163v-164h-163z" />
<glyph unicode="&#x1ce;" d="M82 164v328h164v-328h491v328h-491v163h491v164h-491v164h491v-164h164v-819h-655v164h-164zM246 1311v164h164v-164h-164zM410 1147v164h164v-164h-164zM574 1311v164h163v-164h-163z" />
<glyph unicode="&#x1cf;" horiz-adv-x="327" d="M-80 1803v164h164v-164h-164zM82 0v1475h164v-1475h-164zM84 1639v164h164v-164h-164zM248 1803v164h163v-164h-163z" />
<glyph unicode="&#x1d0;" horiz-adv-x="327" d="M-80 1311v164h164v-164h-164zM82 0v983h164v-983h-164zM84 1147v164h164v-164h-164zM248 1311v164h163v-164h-163z" />
<glyph unicode="&#x1d1;" horiz-adv-x="1146" d="M82 164v1147h164v-1147h-164zM246 0v164h655v-164h-655zM246 1311v164h655v-164h-655zM328 1803v164h164v-164h-164zM492 1639v164h164v-164h-164zM656 1803v164h163v-164h-163zM901 164v1147h164v-1147h-164z" />
<glyph unicode="&#x1d2;" d="M82 164v655h164v-655h-164zM246 0v164h491v-164h-491zM246 819v164h491v-164h-491zM246 1311v164h164v-164h-164zM410 1147v164h164v-164h-164zM574 1311v164h163v-164h-163zM737 164v655h164v-655h-164z" />
<glyph unicode="&#x1d3;" horiz-adv-x="1146" d="M82 164v1311h164v-1311h-164zM246 0v164h655v-164h-655zM328 1803v164h164v-164h-164zM492 1639v164h164v-164h-164zM656 1803v164h163v-164h-163zM901 164v1311h164v-1311h-164z" />
<glyph unicode="&#x1d4;" d="M82 164v819h164v-819h327v-164h-327v164h-164zM246 1311v164h164v-164h-164zM410 1147v164h164v-164h-164zM573 164v164h164v655h164v-983h-164v164h-164zM574 1311v164h163v-164h-163z" />
<glyph unicode="&#x1dd;" d="M82 164v327h655v328h-491v164h491v-164h164v-655h-164v164h-491v-164h491v-164h-491v164h-164zM82 655v164h164v-164h-164z" />
<glyph unicode="&#x1e3;" horiz-adv-x="1638" d="M82 164v328h164v-328h491v328h-491v163h491v164h-491v164h491v-164h164v164h492v-164h163v-327h-655v-328h492v-164h-1147v164h-164zM492 1147v164h655v-164h-655zM901 655h492v164h-492v-164zM1393 164v164h163v-164h-163z" />
<glyph unicode="&#x1e6;" horiz-adv-x="1146" d="M82 164v1147h164v-1147h491v-164h-491v164h-164zM246 1311v164h655v-164h164v-164h-164v164h-655zM328 1803v164h164v-164h-164zM492 1639v164h164v-164h-164zM573 655v164h492v-819h-164v164h-164v164h164v327h-328zM656 1803v164h163v-164h-163z" />
<glyph unicode="&#x1e7;" d="M82 164v655h164v-655h491v655h-491v164h655v-1147h-164v164h-491v164h-164zM82 -164h655v-164h-655v164zM246 1311v164h164v-164h-164zM410 1147v164h164v-164h-164zM574 1311v164h163v-164h-163z" />
<glyph unicode="&#x1e8;" horiz-adv-x="1146" d="M82 0v1475h164v-492h164v-328h163v-163h164v-164h164v-164h164v-164h-164v164h-164v164h-164v164h-163v163h-164v-655h-164zM328 1803v164h164v-164h-164zM410 983v164h163v-164h-163zM492 1639v164h164v-164h-164zM573 1147v164h164v-164h-164zM656 1803v164h163v-164 h-163zM737 1311v164h164v-164h-164z" />
<glyph unicode="&#x1e9;" d="M82 0v1475h164v-820h164v-163h163v-164h164v-164h164v-164h-164v164h-164v164h-163v164h-164v-492h-164zM164 1803v164h164v-164h-164zM328 1639v164h164v-164h-164zM410 655v164h163v-164h-163zM492 1803v164h163v-164h-163zM573 819v164h164v-164h-164z" />
<glyph unicode="&#x1f0;" horiz-adv-x="327" d="M-82 -328h164v-164h-164v164zM-80 1311v164h164v-164h-164zM82 -328v1311h164v-1311h-164zM84 1147v164h164v-164h-164zM248 1311v164h163v-164h-163z" />
<glyph unicode="&#x1f1;" horiz-adv-x="2457" d="M82 0v1475h655v-164h164v-164h164v-819h-164v819h-164v164h-491v-1147h491v-164h-655zM737 164v164h164v-164h-164zM1229 0v328h164v-164h983v-164h-1147zM1229 1311v164h1147v-328h-164v164h-983zM1393 328v164h164v-164h-164zM1557 492v163h163v-163h-163zM1720 655 v164h164v-164h-164zM1884 819v164h164v-164h-164zM2048 983v164h164v-164h-164z" />
<glyph unicode="&#x1f2;" horiz-adv-x="1966" d="M82 0v1475h655v-164h164v-164h164v-819h-164v819h-164v164h-491v-1147h491v-164h-655zM737 164v164h164v-164h-164zM1229 0v328h164v-164h491v-164h-655zM1229 819v164h655v-328h-164v164h-491zM1393 328v164h164v-164h-164zM1557 492v163h163v-163h-163z" />
<glyph unicode="&#x1f3;" horiz-adv-x="1802" d="M82 164v655h164v164h491v492h164v-1475h-655v164h491v655h-491v-655h-164zM1065 0v328h164v-164h491v-164h-655zM1065 819v164h655v-328h-164v164h-491zM1229 328v164h164v-164h-164zM1393 492v163h163v-163h-163z" />
<glyph unicode="&#x1f4;" horiz-adv-x="1146" d="M82 164v1147h164v-1147h491v-164h-491v164h-164zM246 1311v164h655v-164h164v-164h-164v164h-655zM492 1639v164h164v-164h-164zM573 655v164h492v-819h-164v164h-164v164h164v327h-328zM656 1803v164h164v-164h-164z" />
<glyph unicode="&#x1f5;" d="M82 164v655h164v-655h491v655h-491v164h655v-1147h-164v164h-491v164h-164zM82 -164h655v-164h-655v164zM410 1147v164h164v-164h-164zM574 1311v164h164v-164h-164z" />
<glyph unicode="&#x1f8;" horiz-adv-x="1146" d="M82 0v1475h164v-164h164v-328h163v-328h164v-163h164v983h164v-1475h-164v164h-164v328h-164v163h-163v328h-164v-983h-164zM328 1803v164h164v-164h-164zM492 1639v164h164v-164h-164z" />
<glyph unicode="&#x1f9;" d="M82 0v983h164v-164h164v-164h-164v-655h-164zM246 1311v164h164v-164h-164zM410 819v164h327v-164h164v-819h-164v819h-327zM410 1147v164h164v-164h-164z" />
<glyph unicode="&#x1fc;" horiz-adv-x="1638" d="M82 0v328h164v-328h-164zM246 328v491h164v-327h327v655h-164v328h983v-164h-655v-492h492v-164h-492v-491h655v-164h-819v328h-491zM410 819v328h163v-328h-163zM737 1639v164h164v-164h-164zM901 1803v164h164v-164h-164z" />
<glyph unicode="&#x1fd;" horiz-adv-x="1638" d="M82 164v328h164v-328h491v328h-491v163h491v164h-491v164h491v-164h164v164h492v-164h163v-327h-655v-328h492v-164h-1147v164h-164zM737 1147v164h164v-164h-164zM901 655h492v164h-492v-164zM901 1311v164h164v-164h-164zM1393 164v164h163v-164h-163z" />
<glyph unicode="&#x1fe;" horiz-adv-x="1146" d="M82 164v1147h164v-1147h655v-164h-246v-164h-163v164h-246v164h-164zM246 1311v164h246v163h172v-163h237v-164h164v-1147h-164v1147h-655zM492 1802v164h164v-164h-164zM656 1966v164h164v-164h-164z" />
<glyph unicode="&#x1ff;" d="M82 164v655h164v-655h491v-164h-164v-164h-163v164h-164v164h-164zM246 819v164h164v164h163v-164h164v-164h164v-655h-164v655h-491zM410 1311v164h164v-164h-164zM574 1475v164h164v-164h-164z" />
<glyph unicode="&#x218;" d="M82 164v164h164v-164h-164zM82 819v492h164v-492h-164zM246 0v164h491v-164h-491zM246 -328h164v-164h-164v164zM246 655v164h491v-164h-491zM246 1311v164h491v-164h-491zM410 -164h164v-164h-164v164zM737 164v491h164v-491h-164zM737 1147v164h164v-164h-164z" />
<glyph unicode="&#x219;" horiz-adv-x="819" d="M82 164v164h164v-164h-164zM82 655v164h164v-164h-164zM164 -328h164v-164h-164v164zM246 0v164h327v-164h-327zM246 492v163h164v-163h-164zM246 819v164h327v-164h-327zM328 -164h164v-164h-164v164zM410 328v164h163v-164h-163zM573 164v164h164v-164h-164zM573 655 v164h164v-164h-164z" />
<glyph unicode="&#x21a;" d="M82 1311v164h819v-164h-328v-1311h-163v1311h-328zM246 -328h164v-164h-164v164zM410 -164h164v-164h-164v164z" />
<glyph unicode="&#x21b;" horiz-adv-x="491" d="M82 164v1147h164v-328h164v-164h-164v-655h164v-164h-164v164h-164zM82 -328h164v-164h-164v164zM246 -164h164v-164h-164v164z" />
<glyph unicode="&#x226;" horiz-adv-x="1310" d="M82 0v328h164v-328h-164zM246 328v491h164v-327h491v327h-164v328h-164v328h164v-328h164v-328h164v-491h164v-328h-164v328h-819zM410 819v328h163v-328h-163zM574 1639v164h164v-164h-164z" />
<glyph unicode="&#x227;" d="M82 164v328h164v-328h491v328h-491v163h491v164h-491v164h491v-164h164v-819h-655v164h-164zM410 1147v164h164v-164h-164z" />
<glyph unicode="&#x22e;" horiz-adv-x="1146" d="M82 164v1147h164v-1147h-164zM246 0v164h655v-164h-655zM246 1311v164h655v-164h-655zM492 1639v164h164v-164h-164zM901 164v1147h164v-1147h-164z" />
<glyph unicode="&#x22f;" d="M82 164v655h164v-655h-164zM246 0v164h491v-164h-491zM246 819v164h491v-164h-491zM410 1147v164h164v-164h-164zM737 164v655h164v-655h-164z" />
<glyph unicode="&#x232;" horiz-adv-x="1310" d="M82 1147v328h164v-328h-164zM246 983v164h164v-164h-164zM328 1639v164h655v-164h-655zM410 819v164h163v-164h-163zM573 0v819h164v-819h-164zM737 819v164h164v-164h-164zM901 983v164h164v-164h-164zM1065 1147v328h164v-328h-164z" />
<glyph unicode="&#x233;" horiz-adv-x="819" d="M-82 -164h328v-164h-328v164zM82 328v655h164v-655h327v-164h-163v-328h-164v492h-164zM82 1147v164h655v-164h-655zM573 328v655h164v-655h-164z" />
<glyph unicode="&#x237;" horiz-adv-x="327" d="M-82 -328h164v-164h-164v164zM82 -328v1311h164v-1311h-164z" />
<glyph unicode="&#x2c6;" horiz-adv-x="655" d="M82 1147v164h164v-164h-164zM246 1311v164h164v-164h-164zM410 1147v164h163v-164h-163z" />
<glyph unicode="&#x2c7;" horiz-adv-x="655" d="M82 1311v164h164v-164h-164zM246 1147v164h164v-164h-164zM410 1311v164h163v-164h-163z" />
<glyph unicode="&#x2c9;" horiz-adv-x="819" d="M82 1147v164h655v-164h-655z" />
<glyph unicode="&#x2d8;" horiz-adv-x="819" d="M82 1311v164h164v-164h-164zM246 1147v164h327v-164h-327zM573 1311v164h164v-164h-164z" />
<glyph unicode="&#x2d9;" horiz-adv-x="327" d="M82 1147v164h164v-164h-164z" />
<glyph unicode="&#x2da;" horiz-adv-x="655" d="M82 1311v164h164v-164h-164zM246 1147v164h164v-164h-164zM246 1475v163h164v-163h-164zM410 1311v164h163v-164h-163z" />
<glyph unicode="&#x2db;" horiz-adv-x="655" d="M82 0h164v-164h-164v164zM246 -164h327v-164h-327v164z" />
<glyph unicode="&#x2dc;" horiz-adv-x="819" d="M82 1311v164h328v-164h-328zM410 1147v164h327v-164h-327z" />
<glyph unicode="&#x2dd;" horiz-adv-x="819" d="M82 1147v164h164v-164h-164zM246 1311v164h164v-164h-164zM410 1147v164h163v-164h-163zM573 1311v164h164v-164h-164z" />
<glyph unicode="&#x323;" horiz-adv-x="327" d="M82 -164h164v-164h-164v164z" />
<glyph unicode="&#x324;" horiz-adv-x="655" d="M82 -164h164v-164h-164v164zM410 -164h163v-164h-163v164z" />
<glyph unicode="&#x325;" horiz-adv-x="655" d="M82 -328h164v-164h-164v164zM246 -164h164v-164h-164v164zM246 -492h164v-163h-164v163zM410 -328h163v-164h-163v164z" />
<glyph unicode="&#x326;" horiz-adv-x="491" d="M82 -328h164v-164h-164v164zM246 -164h164v-164h-164v164z" />
<glyph unicode="&#x327;" horiz-adv-x="655" d="M82 -164h328v-164h-328v164zM410 0h163v-164h-163v164z" />
<glyph unicode="&#x384;" horiz-adv-x="491" d="M82 1147v164h164v-164h-164zM246 1311v164h164v-164h-164z" />
<glyph unicode="&#x391;" horiz-adv-x="1310" d="M82 0v328h164v-328h-164zM246 328v491h164v-327h491v327h-164v328h-164v328h164v-328h164v-328h164v-491h164v-328h-164v328h-819zM410 819v328h163v-328h-163z" />
<glyph unicode="&#x392;" d="M82 0v1475h655v-164h164v-492h-164v492h-491v-492h491v-164h164v-491h-164v491h-491v-491h491v-164h-655z" />
<glyph unicode="&#x393;" d="M82 0h164v1311h655v164h-819v-1475z" />
<glyph unicode="&#x394;" horiz-adv-x="1310" d="M82 0v328h164v-164h819v164h-164v491h-164v328h-164v328h164v-328h164v-328h164v-491h164v-328h-1147zM246 328v491h164v-491h-164zM410 819v328h163v-328h-163z" />
<glyph unicode="&#x395;" d="M82 0v1475h819v-164h-655v-492h491v-164h-491v-491h655v-164h-819z" />
<glyph unicode="&#x396;" horiz-adv-x="1310" d="M82 0v328h164v-164h983v-164h-1147zM82 1311v164h1147v-328h-164v164h-983zM246 328v164h164v-164h-164zM410 492v163h163v-163h-163zM573 655v164h164v-164h-164zM737 819v164h164v-164h-164zM901 983v164h164v-164h-164z" />
<glyph unicode="&#x397;" horiz-adv-x="1146" d="M82 0v1475h164v-656h655v656h164v-1475h-164v655h-655v-655h-164z" />
<glyph unicode="&#x399;" horiz-adv-x="327" d="M82 0v1475h164v-1475h-164z" />
<glyph unicode="&#x39a;" horiz-adv-x="1146" d="M82 0v1475h164v-492h164v-328h163v-163h164v-164h164v-164h164v-164h-164v164h-164v164h-164v164h-163v163h-164v-655h-164zM410 983v164h163v-164h-163zM573 1147v164h164v-164h-164zM737 1311v164h164v-164h-164z" />
<glyph unicode="&#x39b;" horiz-adv-x="1310" d="M82 0v328h164v-328h-164zM246 328v492h164v-492h-164zM410 820v327h164v-327h-164zM574 1147v328h164v-328h-164zM738 820v327h163v-327h-163zM901 328v492h164v-492h-164zM1065 0v328h164v-328h-164z" />
<glyph unicode="&#x39c;" horiz-adv-x="1310" d="M82 0v1475h164v-328h164v-328h163v-327h164v-328h-164v328h-163v327h-164v-819h-164zM737 492v327h164v-327h-164zM901 819v328h164v328h164v-1475h-164v819h-164z" />
<glyph unicode="&#x39d;" horiz-adv-x="1146" d="M82 0v1475h164v-164h164v-328h163v-328h164v-163h164v983h164v-1475h-164v164h-164v328h-164v163h-163v328h-164v-983h-164z" />
<glyph unicode="&#x39f;" horiz-adv-x="1146" d="M82 164v1147h164v-1147h-164zM246 0v164h655v-164h-655zM246 1311v164h655v-164h-655zM901 164v1147h164v-1147h-164z" />
<glyph unicode="&#x3a0;" horiz-adv-x="1146" d="M82 0v1475h983v-1475h-164v1311h-655v-1311h-164z" />
<glyph unicode="&#x3a1;" horiz-adv-x="1146" d="M82 0v1475h819v-164h164v-492h-164v492h-655v-492h655v-164h-655v-655h-164z" />
<glyph unicode="&#x3a3;" horiz-adv-x="1146" d="M82 0h983v164h-819v164h-164v-328zM82 1147v328h983v-164h-819v-164h-164zM246 328h164v164h-164v-164zM246 983v164h164v-164h-164zM410 492h163v163h-163v-163zM410 819v164h163v-164h-163zM573 655h164v164h-164v-164z" />
<glyph unicode="&#x3a4;" d="M82 1311v164h819v-164h-328v-1311h-163v1311h-328z" />
<glyph unicode="&#x3a5;" horiz-adv-x="1310" d="M82 1147v328h164v-328h-164zM246 983v164h164v-164h-164zM410 819v164h163v-164h-163zM573 0v819h164v-819h-164zM737 819v164h164v-164h-164zM901 983v164h164v-164h-164zM1065 1147v328h164v-328h-164z" />
<glyph unicode="&#x3a7;" horiz-adv-x="1310" d="M82 0v328h164v-328h-164zM82 1147v328h164v-328h-164zM246 328v164h164v-164h-164zM246 983v164h164v-164h-164zM410 492v163h163v-163h-163zM410 819v164h163v-164h-163zM573 655v164h164v-164h-164zM737 492v163h164v-163h-164zM737 819v164h164v-164h-164zM901 328 v164h164v-164h-164zM901 983v164h164v-164h-164zM1065 0v328h164v-328h-164zM1065 1147v328h164v-328h-164z" />
<glyph unicode="&#x3a9;" horiz-adv-x="1474" d="M82 492v655h164v-655h-164zM246 0v164h164v164h163v-328h-327zM246 328v164h164v-164h-164zM246 1147v164h164v-164h-164zM410 1311v164h655v-164h-655zM903 0v328h162v-164h164v-164h-326zM1065 328v164h164v-164h-164zM1065 1147v164h164v-164h-164zM1229 492v655h164 v-655h-164z" />
<glyph unicode="&#x3aa;" horiz-adv-x="327" d="M-80 1639v164h164v-164h-164zM82 0v1475h164v-1475h-164zM248 1639v164h163v-164h-163z" />
<glyph unicode="&#x3ab;" horiz-adv-x="1310" d="M82 1147v328h164v-328h-164zM246 983v164h164v-164h-164zM410 819v164h163v-164h-163zM410 1639v164h164v-164h-164zM573 0v819h164v-819h-164zM737 819v164h164v-164h-164zM738 1639v164h163v-164h-163zM901 983v164h164v-164h-164zM1065 1147v328h164v-328h-164z" />
<glyph unicode="&#x3ac;" d="M82 164v655h164v-655h491v655h-491v164h655v-983h-655v164h-164zM410 1147v164h164v-164h-164zM574 1311v164h164v-164h-164z" />
<glyph unicode="&#x3af;" horiz-adv-x="491" d="M82 164v819h164v-819h-164zM82 1147v164h164v-164h-164zM246 0v164h164v-164h-164zM246 1311v164h164v-164h-164z" />
<glyph unicode="&#x3b1;" d="M82 164v655h164v-655h491v655h-491v164h655v-983h-655v164h-164z" />
<glyph unicode="&#x3b9;" horiz-adv-x="491" d="M82 164v819h164v-819h-164zM246 0v164h164v-164h-164z" />
<glyph unicode="&#x3ba;" d="M82 0v983h164v-328h164v-163h163v-164h164v-164h164v-164h-164v164h-164v164h-163v164h-164v-492h-164zM410 655v164h163v-164h-163zM573 819v164h164v-164h-164z" />
<glyph unicode="&#x3bc;" d="M82 -492v1475h164v-819h327v-164h-327v-492h-164zM573 164v164h164v655h164v-983h-164v164h-164z" />
<glyph unicode="&#x3bd;" d="M82 655v328h164v-328h-164zM246 328v327h164v-327h-164zM410 0v328h163v-328h-163zM573 328v327h164v-327h-164zM737 655v328h164v-328h-164z" />
<glyph unicode="&#x3bf;" d="M82 164v655h164v-655h-164zM246 0v164h491v-164h-491zM246 819v164h491v-164h-491zM737 164v655h164v-655h-164z" />
<glyph unicode="&#x3c5;" d="M82 0v983h164v-819h491v-164h-655zM737 164v819h164v-819h-164z" />
<glyph unicode="&#x3ca;" horiz-adv-x="491" d="M-80 1147v164h164v-164h-164zM82 164v819h164v-819h-164zM246 0v164h164v-164h-164zM248 1147v164h163v-164h-163z" />
<glyph unicode="&#x3cb;" d="M82 0v983h164v-819h491v-164h-655zM246 1147v164h164v-164h-164zM574 1147v164h163v-164h-163zM737 164v819h164v-819h-164z" />
<glyph unicode="&#x3cc;" d="M82 164v655h164v-655h-164zM246 0v164h491v-164h-491zM246 819v164h491v-164h-491zM410 1147v164h164v-164h-164zM574 1311v164h164v-164h-164zM737 164v655h164v-655h-164z" />
<glyph unicode="&#x3cd;" d="M82 0v983h164v-819h491v-164h-655zM328 1147v164h164v-164h-164zM492 1311v164h164v-164h-164zM737 164v819h164v-819h-164z" />
<glyph unicode="&#x400;" d="M82 0v1475h819v-164h-655v-492h491v-164h-491v-491h655v-164h-819zM332 1803v164h164v-164h-164zM496 1639v164h164v-164h-164z" />
<glyph unicode="&#x401;" d="M82 0v1475h819v-164h-655v-492h491v-164h-491v-491h655v-164h-819zM246 1639v164h164v-164h-164zM574 1639v164h163v-164h-163z" />
<glyph unicode="&#x405;" d="M82 164v164h164v-164h-164zM82 819v492h164v-492h-164zM246 0v164h491v-164h-491zM246 655v164h491v-164h-491zM246 1311v164h491v-164h-491zM737 164v491h164v-491h-164zM737 1147v164h164v-164h-164z" />
<glyph unicode="&#x406;" horiz-adv-x="327" d="M82 0v1475h164v-1475h-164z" />
<glyph unicode="&#x407;" horiz-adv-x="327" d="M-80 1639v164h164v-164h-164zM82 0v1475h164v-1475h-164zM248 1639v164h163v-164h-163z" />
<glyph unicode="&#x408;" horiz-adv-x="819" d="M82 164v328h164v-328h-164zM246 0v164h327v-164h-327zM573 164v1311h164v-1311h-164z" />
<glyph unicode="&#x410;" horiz-adv-x="1310" d="M82 0v328h164v-328h-164zM246 328v491h164v-327h491v327h-164v328h-164v328h164v-328h164v-328h164v-491h164v-328h-164v328h-819zM410 819v328h163v-328h-163z" />
<glyph unicode="&#x412;" d="M82 0v1475h655v-164h164v-492h-164v492h-491v-492h491v-164h164v-491h-164v491h-491v-491h491v-164h-655z" />
<glyph unicode="&#x413;" d="M82 0h164v1311h655v164h-819v-1475z" />
<glyph unicode="&#x415;" d="M82 0v1475h819v-164h-655v-492h491v-164h-491v-491h655v-164h-819z" />
<glyph unicode="&#x417;" d="M82 164v164h164v-164h-164zM82 1147v164h164v-164h-164zM246 0v164h491v-164h-491zM246 1311v164h491v-164h-491zM410 655v164h327v-164h-327zM737 164v491h164v-491h-164zM737 819v492h164v-492h-164z" />
<glyph unicode="&#x418;" horiz-adv-x="1146" d="M82 0h164v164h164v328h164v163h163v328h164v-983h164v1475h-164v-164h-164v-328h-163v-328h-164v-163h-164v983h-164v-1475z" />
<glyph unicode="&#x41a;" horiz-adv-x="1146" d="M82 0v1475h164v-492h164v-328h163v-163h164v-164h164v-164h164v-164h-164v164h-164v164h-164v164h-163v163h-164v-655h-164zM410 983v164h163v-164h-163zM573 1147v164h164v-164h-164zM737 1311v164h164v-164h-164z" />
<glyph unicode="&#x41c;" horiz-adv-x="1310" d="M82 0v1475h164v-328h164v-328h163v-327h164v-328h-164v328h-163v327h-164v-819h-164zM737 492v327h164v-327h-164zM901 819v328h164v328h164v-1475h-164v819h-164z" />
<glyph unicode="&#x41d;" horiz-adv-x="1146" d="M82 0v1475h164v-656h655v656h164v-1475h-164v655h-655v-655h-164z" />
<glyph unicode="&#x41e;" horiz-adv-x="1146" d="M82 164v1147h164v-1147h-164zM246 0v164h655v-164h-655zM246 1311v164h655v-164h-655zM901 164v1147h164v-1147h-164z" />
<glyph unicode="&#x41f;" horiz-adv-x="1146" d="M82 0v1475h983v-1475h-164v1311h-655v-1311h-164z" />
<glyph unicode="&#x420;" horiz-adv-x="1146" d="M82 0v1475h819v-164h164v-492h-164v492h-655v-492h655v-164h-655v-655h-164z" />
<glyph unicode="&#x421;" horiz-adv-x="1146" d="M82 164v1147h164v-1147h-164zM246 0v164h655v-164h-655zM246 1311v164h655v-164h-655zM901 164v164h164v-164h-164zM901 1147v164h164v-164h-164z" />
<glyph unicode="&#x422;" d="M82 1311v164h819v-164h-328v-1311h-163v1311h-328z" />
<glyph unicode="&#x425;" horiz-adv-x="1310" d="M82 0v328h164v-328h-164zM82 1147v328h164v-328h-164zM246 328v164h164v-164h-164zM246 983v164h164v-164h-164zM410 492v163h163v-163h-163zM410 819v164h163v-164h-163zM573 655v164h164v-164h-164zM737 492v163h164v-163h-164zM737 819v164h164v-164h-164zM901 328 v164h164v-164h-164zM901 983v164h164v-164h-164zM1065 0v328h164v-328h-164zM1065 1147v328h164v-328h-164z" />
<glyph unicode="&#x42a;" horiz-adv-x="1310" d="M82 1311v164h328v-656h655v-164h164v-491h-164v491h-655v-491h655v-164h-819v1311h-164z" />
<glyph unicode="&#x42c;" horiz-adv-x="1146" d="M82 0h819v164h164v492h-164v-492h-655v492h655v164h-655v655h-164v-1475z" />
<glyph unicode="&#x42f;" horiz-adv-x="1146" d="M82 0h164v655h-164v-655zM82 819h164v492h655v-492h-655v-164h655v-655h164v1475h-819v-164h-164v-492z" />
<glyph unicode="&#x430;" d="M82 164v655h164v-655h491v655h-491v164h655v-983h-655v164h-164z" />
<glyph unicode="&#x435;" d="M82 164v655h164v-164h491v164h-491v164h491v-164h164v-327h-655v-328h491v-164h-491v164h-164zM737 164v164h164v-164h-164z" />
<glyph unicode="&#x43a;" d="M82 0v983h164v-328h164v-163h163v-164h164v-164h164v-164h-164v164h-164v164h-163v164h-164v-492h-164zM410 655v164h163v-164h-163zM573 819v164h164v-164h-164z" />
<glyph unicode="&#x43e;" d="M82 164v655h164v-655h-164zM246 0v164h491v-164h-491zM246 819v164h491v-164h-491zM737 164v655h164v-655h-164z" />
<glyph unicode="&#x440;" d="M82 -492v1475h655v-164h-491v-655h491v655h164v-655h-164v-164h-491v-492h-164z" />
<glyph unicode="&#x441;" d="M82 164v655h164v-655h-164zM246 0v164h491v-164h-491zM246 819v164h491v-164h-491zM737 164v164h164v-164h-164zM737 655v164h164v-164h-164z" />
<glyph unicode="&#x443;" horiz-adv-x="819" d="M-82 -164h328v-164h-328v164zM82 328v655h164v-655h327v-164h-163v-328h-164v492h-164zM573 328v655h164v-655h-164z" />
<glyph unicode="&#x445;" horiz-adv-x="819" d="M82 0v328h164v-328h-164zM82 655v328h164v-328h-164zM246 328v327h327v-327h-327zM573 0v328h164v-328h-164zM573 655v328h164v-328h-164z" />
<glyph unicode="&#x450;" d="M82 164v655h164v-164h491v164h-491v164h491v-164h164v-327h-655v-328h491v-164h-491v164h-164zM246 1311v164h164v-164h-164zM410 1147v164h164v-164h-164zM737 164v164h164v-164h-164z" />
<glyph unicode="&#x451;" d="M82 164v655h164v-164h491v164h-491v164h491v-164h164v-327h-655v-328h491v-164h-491v164h-164zM246 1147v164h164v-164h-164zM574 1147v164h163v-164h-163zM737 164v164h164v-164h-164z" />
<glyph unicode="&#x455;" horiz-adv-x="819" d="M82 164v164h164v-164h-164zM82 655v164h164v-164h-164zM246 0v164h327v-164h-327zM246 492v163h164v-163h-164zM246 819v164h327v-164h-327zM410 328v164h163v-164h-163zM573 164v164h164v-164h-164zM573 655v164h164v-164h-164z" />
<glyph unicode="&#x456;" horiz-adv-x="327" d="M82 0v983h164v-983h-164zM82 1311v164h164v-164h-164z" />
<glyph unicode="&#x457;" horiz-adv-x="327" d="M-80 1147v164h164v-164h-164zM82 0v983h164v-983h-164zM248 1147v164h163v-164h-163z" />
<glyph unicode="&#x458;" horiz-adv-x="327" d="M-82 -328h164v-164h-164v164zM82 -328v1311h164v-1311h-164zM82 1311v164h164v-164h-164z" />
<glyph unicode="&#x45c;" d="M82 0v983h164v-328h164v-163h163v-164h164v-164h164v-164h-164v164h-164v164h-163v164h-164v-492h-164zM328 1147v164h164v-164h-164zM410 655v164h163v-164h-163zM492 1311v164h164v-164h-164zM573 819v164h164v-164h-164z" />
<glyph unicode="&#x45e;" horiz-adv-x="819" d="M-82 -164h328v-164h-328v164zM82 328v655h164v-655h327v-164h-163v-328h-164v492h-164zM82 1311v164h164v-164h-164zM246 1147v164h327v-164h-327zM573 328v655h164v-655h-164zM573 1311v164h164v-164h-164z" />
<glyph unicode="&#x1e02;" d="M82 0v1475h655v-164h164v-492h-164v492h-491v-492h491v-164h164v-491h-164v491h-491v-491h491v-164h-655zM410 1639v164h164v-164h-164z" />
<glyph unicode="&#x1e03;" d="M82 0v1475h164v-492h491v-164h164v-655h-164v655h-491v-655h491v-164h-655zM410 1639v164h164v-164h-164z" />
<glyph unicode="&#x1e0a;" horiz-adv-x="1146" d="M82 0v1475h655v-164h164v-164h164v-819h-164v819h-164v164h-491v-1147h491v-164h-655zM492 1639v164h164v-164h-164zM737 164v164h164v-164h-164z" />
<glyph unicode="&#x1e0b;" d="M82 164v655h164v164h491v492h164v-1475h-655v164h491v655h-491v-655h-164zM410 1639v164h164v-164h-164z" />
<glyph unicode="&#x1e22;" horiz-adv-x="1146" d="M82 0v1475h164v-656h655v656h164v-1475h-164v655h-655v-655h-164zM492 1639v164h164v-164h-164z" />
<glyph unicode="&#x1e23;" d="M82 0v1475h164v-656h164v-164h-164v-655h-164zM410 819v164h327v-164h164v-819h-164v819h-327zM410 1639v164h164v-164h-164z" />
<glyph unicode="&#x1e26;" horiz-adv-x="1146" d="M82 0v1475h164v-656h655v656h164v-1475h-164v655h-655v-655h-164zM328 1639v164h164v-164h-164zM656 1639v164h163v-164h-163z" />
<glyph unicode="&#x1e27;" d="M82 0v1475h164v-656h164v-164h-164v-655h-164zM246 1639v164h164v-164h-164zM410 819v164h327v-164h164v-819h-164v819h-327zM574 1639v164h163v-164h-163z" />
<glyph unicode="&#x1e30;" horiz-adv-x="1146" d="M82 0v1475h164v-492h164v-328h163v-163h164v-164h164v-164h164v-164h-164v164h-164v164h-164v164h-163v163h-164v-655h-164zM410 983v164h163v-164h-163zM410 1639v164h164v-164h-164zM573 1147v164h164v-164h-164zM574 1803v164h164v-164h-164zM737 1311v164h164v-164 h-164z" />
<glyph unicode="&#x1e31;" d="M82 0v1475h164v-820h164v-163h163v-164h164v-164h164v-164h-164v164h-164v164h-163v164h-164v-492h-164zM328 1639v164h164v-164h-164zM410 655v164h163v-164h-163zM492 1803v164h164v-164h-164zM573 819v164h164v-164h-164z" />
<glyph unicode="&#x1e3e;" horiz-adv-x="1310" d="M82 0v1475h164v-328h164v-328h163v-327h164v-328h-164v328h-163v327h-164v-819h-164zM574 1639v164h164v-164h-164zM737 492v327h164v-327h-164zM738 1803v164h164v-164h-164zM901 819v328h164v328h164v-1475h-164v819h-164z" />
<glyph unicode="&#x1e3f;" horiz-adv-x="1310" d="M82 0v983h491v-164h164v-819h-164v819h-327v-819h-164zM574 1147v164h164v-164h-164zM737 819v164h328v-164h164v-819h-164v819h-328zM738 1311v164h164v-164h-164z" />
<glyph unicode="&#x1e40;" horiz-adv-x="1310" d="M82 0v1475h164v-328h164v-328h163v-327h164v-328h-164v328h-163v327h-164v-819h-164zM574 1639v164h164v-164h-164zM737 492v327h164v-327h-164zM901 819v328h164v328h164v-1475h-164v819h-164z" />
<glyph unicode="&#x1e41;" horiz-adv-x="1310" d="M82 0v983h491v-164h164v-819h-164v819h-327v-819h-164zM574 1147v164h164v-164h-164zM737 819v164h328v-164h164v-819h-164v819h-328z" />
<glyph unicode="&#x1e60;" d="M82 164v164h164v-164h-164zM82 819v492h164v-492h-164zM246 0v164h491v-164h-491zM246 655v164h491v-164h-491zM246 1311v164h491v-164h-491zM410 1639v164h164v-164h-164zM737 164v491h164v-491h-164zM737 1147v164h164v-164h-164z" />
<glyph unicode="&#x1e61;" horiz-adv-x="819" d="M82 164v164h164v-164h-164zM82 655v164h164v-164h-164zM246 0v164h327v-164h-327zM246 492v163h164v-163h-164zM246 819v164h327v-164h-327zM328 1147v164h164v-164h-164zM410 328v164h163v-164h-163zM573 164v164h164v-164h-164zM573 655v164h164v-164h-164z" />
<glyph unicode="&#x1e6a;" d="M82 1311v164h819v-164h-328v-1311h-163v1311h-328zM410 1639v164h164v-164h-164z" />
<glyph unicode="&#x1e6b;" horiz-adv-x="491" d="M82 164v1147h164v-328h164v-164h-164v-655h164v-164h-164v164h-164zM82 1475v164h164v-164h-164z" />
<glyph unicode="&#x1e80;" horiz-adv-x="1966" d="M82 1147v328h164v-328h-164zM246 655v492h164v-492h-164zM410 328v327h163v-327h-163zM573 0v328h164v-328h-164zM737 328v327h164v-327h-164zM737 1803v164h164v-164h-164zM901 655v492h164v-492h-164zM901 1639v164h164v-164h-164zM1065 328v327h164v-327h-164zM1229 0 v328h164v-328h-164zM1393 328v327h163v-327h-163zM1556 655v492h164v-492h-164zM1720 1147v328h164v-328h-164z" />
<glyph unicode="&#x1e81;" horiz-adv-x="1310" d="M82 328v655h164v-655h-164zM246 0v328h164v-328h-164zM410 328v327h163v-327h-163zM410 1311v164h164v-164h-164zM573 655v328h164v-328h-164zM574 1147v164h164v-164h-164zM737 328v327h164v-327h-164zM901 0v328h164v-328h-164zM1065 328v655h164v-655h-164z" />
<glyph unicode="&#x1e82;" horiz-adv-x="1966" d="M82 1147v328h164v-328h-164zM246 655v492h164v-492h-164zM410 328v327h163v-327h-163zM573 0v328h164v-328h-164zM737 328v327h164v-327h-164zM901 655v492h164v-492h-164zM901 1639v164h164v-164h-164zM1065 328v327h164v-327h-164zM1065 1803v164h164v-164h-164z M1229 0v328h164v-328h-164zM1393 328v327h163v-327h-163zM1556 655v492h164v-492h-164zM1720 1147v328h164v-328h-164z" />
<glyph unicode="&#x1e83;" horiz-adv-x="1310" d="M82 328v655h164v-655h-164zM246 0v328h164v-328h-164zM410 328v327h163v-327h-163zM573 655v328h164v-328h-164zM574 1147v164h164v-164h-164zM737 328v327h164v-327h-164zM738 1311v164h164v-164h-164zM901 0v328h164v-328h-164zM1065 328v655h164v-655h-164z" />
<glyph unicode="&#x1e84;" horiz-adv-x="1966" d="M82 1147v328h164v-328h-164zM246 655v492h164v-492h-164zM410 328v327h163v-327h-163zM573 0v328h164v-328h-164zM737 328v327h164v-327h-164zM737 1639v164h164v-164h-164zM901 655v492h164v-492h-164zM1065 328v327h164v-327h-164zM1065 1639v164h163v-164h-163z M1229 0v328h164v-328h-164zM1393 328v327h163v-327h-163zM1556 655v492h164v-492h-164zM1720 1147v328h164v-328h-164z" />
<glyph unicode="&#x1e85;" horiz-adv-x="1310" d="M82 328v655h164v-655h-164zM246 0v328h164v-328h-164zM410 328v327h163v-327h-163zM410 1147v164h164v-164h-164zM573 655v328h164v-328h-164zM737 328v327h164v-327h-164zM738 1147v164h163v-164h-163zM901 0v328h164v-328h-164zM1065 328v655h164v-655h-164z" />
<glyph unicode="&#x1e86;" horiz-adv-x="1966" d="M82 1147v328h164v-328h-164zM246 655v492h164v-492h-164zM410 328v327h163v-327h-163zM573 0v328h164v-328h-164zM737 328v327h164v-327h-164zM901 655v492h164v-492h-164zM901 1639v164h164v-164h-164zM1065 328v327h164v-327h-164zM1229 0v328h164v-328h-164zM1393 328 v327h163v-327h-163zM1556 655v492h164v-492h-164zM1720 1147v328h164v-328h-164z" />
<glyph unicode="&#x1e87;" horiz-adv-x="1310" d="M82 328v655h164v-655h-164zM246 0v328h164v-328h-164zM410 328v327h163v-327h-163zM573 655v328h164v-328h-164zM574 1147v164h164v-164h-164zM737 328v327h164v-327h-164zM901 0v328h164v-328h-164zM1065 328v655h164v-655h-164z" />
<glyph unicode="&#x1e8a;" horiz-adv-x="1310" d="M82 0v328h164v-328h-164zM82 1147v328h164v-328h-164zM246 328v164h164v-164h-164zM246 983v164h164v-164h-164zM410 492v163h163v-163h-163zM410 819v164h163v-164h-163zM573 655v164h164v-164h-164zM574 1639v164h164v-164h-164zM737 492v163h164v-163h-164zM737 819 v164h164v-164h-164zM901 328v164h164v-164h-164zM901 983v164h164v-164h-164zM1065 0v328h164v-328h-164zM1065 1147v328h164v-328h-164z" />
<glyph unicode="&#x1e8b;" horiz-adv-x="819" d="M82 0v328h164v-328h-164zM82 655v328h164v-328h-164zM246 328v327h327v-327h-327zM328 1147v164h164v-164h-164zM573 0v328h164v-328h-164zM573 655v328h164v-328h-164z" />
<glyph unicode="&#x1e8c;" horiz-adv-x="1310" d="M82 0v328h164v-328h-164zM82 1147v328h164v-328h-164zM246 328v164h164v-164h-164zM246 983v164h164v-164h-164zM410 492v163h163v-163h-163zM410 819v164h163v-164h-163zM410 1639v164h164v-164h-164zM573 655v164h164v-164h-164zM737 492v163h164v-163h-164zM737 819 v164h164v-164h-164zM738 1639v164h163v-164h-163zM901 328v164h164v-164h-164zM901 983v164h164v-164h-164zM1065 0v328h164v-328h-164zM1065 1147v328h164v-328h-164z" />
<glyph unicode="&#x1e8d;" horiz-adv-x="819" d="M82 0v328h164v-328h-164zM82 655v328h164v-328h-164zM164 1147v164h164v-164h-164zM246 328v327h327v-327h-327zM492 1147v164h163v-164h-163zM573 0v328h164v-328h-164zM573 655v328h164v-328h-164z" />
<glyph unicode="&#x1e8e;" horiz-adv-x="1310" d="M82 1147v328h164v-328h-164zM246 983v164h164v-164h-164zM410 819v164h163v-164h-163zM573 0v819h164v-819h-164zM574 1639v164h164v-164h-164zM737 819v164h164v-164h-164zM901 983v164h164v-164h-164zM1065 1147v328h164v-328h-164z" />
<glyph unicode="&#x1e8f;" horiz-adv-x="819" d="M-82 -164h328v-164h-328v164zM82 328v655h164v-655h327v-164h-163v-328h-164v492h-164zM328 1147v164h164v-164h-164zM573 328v655h164v-655h-164z" />
<glyph unicode="&#x1e97;" horiz-adv-x="491" d="M-80 1475v164h164v-164h-164zM82 164v1147h164v-328h164v-164h-164v-655h164v-164h-164v164h-164zM248 1475v164h163v-164h-163z" />
<glyph unicode="&#x1ef2;" horiz-adv-x="1310" d="M82 1147v328h164v-328h-164zM246 983v164h164v-164h-164zM410 819v164h163v-164h-163zM410 1803v164h164v-164h-164zM573 0v819h164v-819h-164zM574 1639v164h164v-164h-164zM737 819v164h164v-164h-164zM901 983v164h164v-164h-164zM1065 1147v328h164v-328h-164z" />
<glyph unicode="&#x1ef3;" horiz-adv-x="819" d="M-82 -164h328v-164h-328v164zM82 328v655h164v-655h327v-164h-163v-328h-164v492h-164zM164 1311v164h164v-164h-164zM328 1147v164h164v-164h-164zM573 328v655h164v-655h-164z" />
<glyph unicode="&#x2000;" horiz-adv-x="1065" />
<glyph unicode="&#x2001;" horiz-adv-x="2130" />
<glyph unicode="&#x2002;" horiz-adv-x="1065" />
<glyph unicode="&#x2003;" horiz-adv-x="2130" />
<glyph unicode="&#x2004;" horiz-adv-x="710" />
<glyph unicode="&#x2005;" horiz-adv-x="532" />
<glyph unicode="&#x2006;" horiz-adv-x="355" />
<glyph unicode="&#x2007;" horiz-adv-x="355" />
<glyph unicode="&#x2008;" horiz-adv-x="266" />
<glyph unicode="&#x2009;" horiz-adv-x="426" />
<glyph unicode="&#x200a;" horiz-adv-x="118" />
<glyph unicode="&#x2010;" horiz-adv-x="655" d="M82 492v163h491v-163h-491z" />
<glyph unicode="&#x2011;" horiz-adv-x="655" d="M82 492v163h491v-163h-491z" />
<glyph unicode="&#x2012;" horiz-adv-x="655" d="M82 492v163h491v-163h-491z" />
<glyph unicode="&#x2013;" horiz-adv-x="1474" d="M82 655v164h1311v-164h-1311z" />
<glyph unicode="&#x2014;" horiz-adv-x="2048" d="M82 655v164h1884v-164h-1884z" />
<glyph unicode="&#x2017;" horiz-adv-x="819" d="M82 0h655v-164h-655v164zM82 -322h655v-164h-655v164z" />
<glyph unicode="&#x2018;" horiz-adv-x="491" d="M82 1147v327h164v-327h-164zM246 1474v164h164v-164h-164z" />
<glyph unicode="&#x2019;" horiz-adv-x="491" d="M82 1147v164h164v-164h-164zM246 1311v327h164v-327h-164z" />
<glyph unicode="&#x201a;" horiz-adv-x="491" d="M82 -162h164v-164h-164v164zM246 -162v327h164v-327h-164z" />
<glyph unicode="&#x201b;" horiz-adv-x="491" d="M82 1311h164v327h-164v-327zM246 1147h164v164h-164v-164z" />
<glyph unicode="&#x201c;" horiz-adv-x="819" d="M82 1147v327h164v-327h-164zM246 1474v164h164v-164h-164zM409 1147v327h164v-327h-164zM573 1474v164h164v-164h-164z" />
<glyph unicode="&#x201d;" horiz-adv-x="819" d="M82 1147v164h164v-164h-164zM246 1311v327h164v-327h-164zM410 1147v164h164v-164h-164zM574 1311v327h164v-327h-164z" />
<glyph unicode="&#x201e;" horiz-adv-x="819" d="M82 -162h164v-164h-164v164zM246 -162v327h164v-327h-164zM410 -162h164v-164h-164v164zM574 -162v327h164v-327h-164z" />
<glyph unicode="&#x201f;" horiz-adv-x="819" d="M82 1311h164v327h-164v-327zM246 1147h164v164h-164v-164zM409 1311h164v327h-164v-327zM573 1147h164v164h-164v-164z" />
<glyph unicode="&#x2020;" horiz-adv-x="655" d="M82 1147v164h164v327h164v-327h163v-164h-163v-1311h-164v1311h-164z" />
<glyph unicode="&#x2021;" horiz-adv-x="655" d="M82 164v164h164v819h-164v164h164v327h164v-327h163v-164h-163v-819h163v-164h-163v-328h-164v328h-164z" />
<glyph unicode="&#x2022;" horiz-adv-x="819" d="M82 573v328h164v164h327v-164h164v-328h-164v-163h-327v163h-164z" />
<glyph unicode="&#x2023;" horiz-adv-x="491" d="M82 492v491h164v-164h164v-164h-164v-163h-164z" />
<glyph unicode="&#x2024;" horiz-adv-x="327" d="M82 0v164h164v-164h-164z" />
<glyph unicode="&#x2025;" horiz-adv-x="655" d="M82 0v164h164v-164h-164zM410 0v164h163v-164h-163z" />
<glyph unicode="&#x2026;" d="M82 0v164h164v-164h-164zM410 0v164h163v-164h-163zM737 0v164h164v-164h-164z" />
<glyph unicode="&#x2027;" horiz-adv-x="327" d="M82 655v164h164v-164h-164z" />
<glyph unicode="&#x202f;" horiz-adv-x="426" />
<glyph unicode="&#x2030;" horiz-adv-x="1802" d="M82 164v164h164v-164h-164zM82 1147v164h164v-164h-164zM246 328v164h164v-164h-164zM246 983v164h327v-164h-327zM246 1311v164h327v-164h-327zM410 492v163h163v-163h-163zM573 164v164h164v-164h-164zM573 655v164h164v-164h-164zM573 1147v164h164v-164h-164zM737 0 v164h328v-164h-328zM737 328v164h328v-164h-328zM737 819v164h164v-164h-164zM901 983v164h164v-164h-164zM1065 164v164h164v-164h-164zM1065 1147v164h164v-164h-164zM1229 0v164h327v-164h-327zM1229 328v164h327v-164h-327zM1556 164v164h164v-164h-164z" />
<glyph unicode="&#x2039;" horiz-adv-x="819" d="M82 655v164h164v-164h-164zM246 492v163h164v-163h-164zM246 819v164h164v-164h-164zM410 328v164h163v-164h-163zM410 983v164h163v-164h-163zM573 164v164h164v-164h-164zM573 1147v164h164v-164h-164z" />
<glyph unicode="&#x203a;" horiz-adv-x="819" d="M82 164v164h164v-164h-164zM82 1147v164h164v-164h-164zM246 328v164h163v-164h-163zM246 983v164h163v-164h-163zM409 492v164h164v-164h-164zM409 820v163h164v-163h-164zM573 656v164h164v-164h-164z" />
<glyph unicode="&#x2044;" horiz-adv-x="819" d="M82 0v328h164v-328h-164zM246 328v327h164v-327h-164zM410 655v328h163v-328h-163zM573 983v492h164v-492h-164z" />
<glyph unicode="&#x205f;" horiz-adv-x="532" />
<glyph unicode="&#x2070;" horiz-adv-x="819" d="M82 983v492h164v-492h-164zM246 819v164h327v-164h-327zM246 1475v163h327v-163h-327zM573 983v492h164v-492h-164z" />
<glyph unicode="&#x2071;" horiz-adv-x="327" d="M82 819v574h164v-574h-164zM82 1475v163h164v-163h-164z" />
<glyph unicode="&#x2074;" horiz-adv-x="819" d="M82 983v328h164v164h164v163h163v-491h164v-164h-164v-164h-163v164h-328zM246 1147h164v164h-164v-164z" />
<glyph unicode="&#x2075;" horiz-adv-x="819" d="M82 819v164h491v-164h-491zM82 1147v491h491v-163h-327v-164h327v-164h164v-164h-164v164h-491z" />
<glyph unicode="&#x2076;" horiz-adv-x="819" d="M82 983v492h164v-164h327v-164h164v-164h-164v164h-327v-164h327v-164h-327v164h-164zM246 1475v163h327v-163h-327z" />
<glyph unicode="&#x2077;" horiz-adv-x="819" d="M82 1475v163h655v-327h-164v164h-491zM246 819v328h164v-328h-164zM410 1147v164h163v-164h-163z" />
<glyph unicode="&#x2078;" horiz-adv-x="819" d="M82 983v164h164v-164h-164zM82 1311v164h164v-164h-164zM246 819v164h327v-164h-327zM246 1147v164h327v-164h-327zM246 1475v163h327v-163h-327zM573 983v164h164v-164h-164zM573 1311v164h164v-164h-164z" />
<glyph unicode="&#x2079;" horiz-adv-x="819" d="M82 1311v164h164v-164h327v164h-327v164h327v-164h164v-492h-164v164h-327v164h-164zM246 820v163h327v-163h-327z" />
<glyph unicode="&#x207f;" d="M82 492v983h164v-164h164v-164h-164v-655h-164zM410 1311v164h327v-164h164v-819h-164v819h-327z" />
<glyph unicode="&#x2080;" horiz-adv-x="819" d="M82 2v492h164v-492h-164zM246 2h327v-164h-327v164zM246 494v163h327v-163h-327zM573 2v492h164v-492h-164z" />
<glyph unicode="&#x2081;" horiz-adv-x="491" d="M82 330v164h164v163h164v-819h-164v492h-164z" />
<glyph unicode="&#x2082;" horiz-adv-x="655" d="M82 -162v328h164v-164h327v-164h-491zM82 494v163h328v-163h163v-164h-163v164h-328zM246 166v164h164v-164h-164z" />
<glyph unicode="&#x2083;" horiz-adv-x="655" d="M82 2h328v-164h-328v164zM82 494v163h328v-163h-328zM246 166v164h164v-164h-164zM410 2v164h163v-164h-163zM410 330v164h163v-164h-163z" />
<glyph unicode="&#x2084;" horiz-adv-x="819" d="M82 2v328h164v164h164v163h163v-491h164v-164h-164v-164h-163v164h-328zM246 166h164v164h-164v-164z" />
<glyph unicode="&#x2085;" horiz-adv-x="819" d="M82 2h491v-164h-491v164zM82 166v491h491v-163h-327v-164h327v-164h164v-164h-164v164h-491z" />
<glyph unicode="&#x2086;" horiz-adv-x="819" d="M82 2v492h164v-164h327v-164h164v-164h-164v164h-327v-164h327v-164h-327v164h-164zM246 494v163h327v-163h-327z" />
<glyph unicode="&#x2087;" horiz-adv-x="819" d="M82 412v163h655v-327h-164v164h-491zM246 84h164v-328h-164v328zM410 84v164h163v-164h-163z" />
<glyph unicode="&#x2088;" horiz-adv-x="819" d="M82 2v164h164v-164h-164zM82 330v164h164v-164h-164zM246 2h327v-164h-327v164zM246 166v164h327v-164h-327zM246 494v163h327v-163h-327zM573 2v164h164v-164h-164zM573 330v164h164v-164h-164z" />
<glyph unicode="&#x2089;" horiz-adv-x="819" d="M82 328v164h164v-164h327v164h-327v164h327v-164h164v-492h-164v164h-327v164h-164zM246 0h327v-163h-327v163z" />
<glyph unicode="&#x20a3;" horiz-adv-x="1146" d="M82 246v164h164v1065h819v-164h-655v-492h491v-164h-491v-245h327v-164h-327v-246h-164v246h-164z" />
<glyph unicode="&#x20a4;" horiz-adv-x="1146" d="M82 0v164h164v246h-164v163h164v164h-164v164h164v410h164v-410h327v-164h-327v-164h327v-163h-327v-246h655v-164h-983zM410 1311v164h491v-164h164v-164h-164v164h-491z" />
<glyph unicode="&#x20a7;" horiz-adv-x="2457" d="M82 0v1475h819v-164h164v-492h-164v492h-655v-492h655v-164h-655v-655h-164zM1229 164v1147h164v-328h164v-164h-164v-655h164v-164h-164v164h-164zM1720 164v164h164v-164h-164zM1720 655v164h164v-164h-164zM1884 0v164h327v-164h-327zM1884 492v163h164v-163h-164z M1884 819v164h327v-164h-327zM2048 328v164h163v-164h-163zM2211 164v164h164v-164h-164zM2211 655v164h164v-164h-164z" />
<glyph unicode="&#x20ac;" horiz-adv-x="1310" d="M82 492v163h164v164h-164v164h164v328h164v-328h327v-164h-327v-164h327v-163h-327v-328h655v-164h-655v164h-164v328h-164zM410 1311v164h655v-164h164v-164h-164v164h-655zM1065 164v164h164v-164h-164z" />
<glyph unicode="&#x2116;" horiz-adv-x="2211" d="M82 0v1475h164v-164h164v-328h163v-328h164v-163h164v983h164v-1475h-164v164h-164v328h-164v163h-163v328h-164v-983h-164zM1311 656v655h164v-655h-164zM1393 0v164h655v-164h-655zM1475 492v164h491v-164h-491zM1475 1311v164h491v-164h-491zM1966 656v655h164v-655 h-164z" />
<glyph unicode="&#x2120;" horiz-adv-x="1802" d="M82 819v164h491v-164h-491zM82 1311v164h164v-164h-164zM246 1147v164h327v-164h-327zM246 1475v163h491v-163h-491zM573 983v164h164v-164h-164zM901 827v811h164v-163h164v-164h164v-164h-164v164h-164v-484h-164zM1393 1311v164h163v163h164v-819h-164v492h-163z" />
<glyph unicode="&#x2121;" horiz-adv-x="2129" d="M82 1475v163h655v-163h-245v-656h-164v656h-246zM819 819v819h574v-163h-410v-164h246v-164h-246v-164h410v-164h-574zM1556 819v819h164v-655h328v-164h-492z" />
<glyph unicode="&#x2122;" horiz-adv-x="1720" d="M82 1475v163h655v-163h-245v-656h-164v656h-246zM819 827v811h164v-163h164v-164h164v-164h-164v164h-164v-484h-164zM1311 1311v164h164v163h163v-819h-163v492h-164z" />
<glyph unicode="&#x2126;" horiz-adv-x="1474" d="M82 492v655h164v-655h-164zM246 0v164h164v164h163v-328h-327zM246 328v164h164v-164h-164zM246 1147v164h164v-164h-164zM410 1311v164h655v-164h-655zM903 0v328h162v-164h164v-164h-326zM1065 328v164h164v-164h-164zM1065 1147v164h164v-164h-164zM1229 492v655h164 v-655h-164z" />
<glyph unicode="&#x212b;" horiz-adv-x="1310" d="M82 0v328h164v-328h-164zM246 328v491h164v-327h491v327h-164v328h-164v328h-163v163h163v-163h164v163h-164v164h164v-164h164v-163h-164v-328h164v-328h164v-491h164v-328h-164v328h-819zM410 819v328h163v-328h-163z" />
<glyph unicode="&#x212e;" horiz-adv-x="1697" d="M82 739q0 172 54 321.5t154.5 259.5t242 173t317.5 63q170 0 311.5 -60t242.5 -168.5t156.5 -258t55.5 -330.5h-1200v-540q180 -174 434 -174q365 0 573 358l103 -66q-74 -106 -145.5 -182t-150.5 -124t-171 -70.5t-209 -22.5q-176 0 -318.5 63.5t-243 174t-153.5 261 t-53 322.5zM416 844h864v432q-188 176 -434 176q-248 0 -430 -178v-430z" />
<glyph unicode="&#x2153;" horiz-adv-x="1802" d="M82 1149v164h164v163h164v-819h-164v492h-164zM492 0v328h164v-328h-164zM656 328v327h164v-327h-164zM820 655v328h163v-328h-163zM983 983v492h164v-492h-164zM1229 2v164h328v-164h-328zM1229 658v163h328v-163h-328zM1393 330v164h164v-164h-164zM1557 166v164h163 v-164h-163zM1557 494v164h163v-164h-163z" />
<glyph unicode="&#x2154;" horiz-adv-x="1966" d="M82 657v328h164v-164h327v-164h-491zM82 1313v163h328v-163h163v-164h-163v164h-328zM246 985v164h164v-164h-164zM655 0v328h164v-328h-164zM819 328v327h164v-327h-164zM983 655v328h163v-328h-163zM1146 983v492h164v-492h-164zM1393 2v164h328v-164h-328zM1393 658 v163h328v-163h-328zM1557 330v164h164v-164h-164zM1721 166v164h163v-164h-163zM1721 494v164h163v-164h-163z" />
<glyph unicode="&#x2160;" horiz-adv-x="327" d="M82 0v1475h164v-1475h-164z" />
<glyph unicode="&#x2161;" horiz-adv-x="655" d="M82 0v1475h164v-1475h-164zM410 0v1475h164v-1475h-164z" />
<glyph unicode="&#x2162;" d="M82 0v1475h164v-1475h-164zM410 0v1475h164v-1475h-164zM737 0v1475h164v-1475h-164z" />
<glyph unicode="&#x2163;" horiz-adv-x="1638" d="M82 0v1475h164v-1475h-164zM410 1147v328h164v-328h-164zM574 655v492h164v-492h-164zM738 328v327h163v-327h-163zM901 0v328h164v-328h-164zM1065 328v327h164v-327h-164zM1229 655v492h164v-492h-164zM1393 1147v328h164v-328h-164z" />
<glyph unicode="&#x2164;" horiz-adv-x="1310" d="M82 1147v328h164v-328h-164zM246 655v492h164v-492h-164zM410 328v327h163v-327h-163zM573 0v328h164v-328h-164zM737 328v327h164v-327h-164zM901 655v492h164v-492h-164zM1065 1147v328h164v-328h-164z" />
<glyph unicode="&#x2165;" horiz-adv-x="1638" d="M82 1147v328h164v-328h-164zM246 655v492h164v-492h-164zM410 328v327h163v-327h-163zM573 0v328h164v-328h-164zM737 328v327h164v-327h-164zM901 655v492h164v-492h-164zM1065 1147v328h164v-328h-164zM1393 0v1475h164v-1475h-164z" />
<glyph unicode="&#x2166;" horiz-adv-x="1966" d="M82 1147v328h164v-328h-164zM246 655v492h164v-492h-164zM410 328v327h163v-327h-163zM573 0v328h164v-328h-164zM737 328v327h164v-327h-164zM901 655v492h164v-492h-164zM1065 1147v328h164v-328h-164zM1393 0v1475h164v-1475h-164zM1720 0v1475h164v-1475h-164z" />
<glyph unicode="&#x2167;" horiz-adv-x="2293" d="M82 1147v328h164v-328h-164zM246 655v492h164v-492h-164zM410 328v327h163v-327h-163zM573 0v328h164v-328h-164zM737 328v327h164v-327h-164zM901 655v492h164v-492h-164zM1065 1147v328h164v-328h-164zM1393 0v1475h164v-1475h-164zM1720 0v1475h164v-1475h-164z M2048 0v1475h164v-1475h-164z" />
<glyph unicode="&#x2168;" horiz-adv-x="1638" d="M82 0v1475h164v-1475h-164zM410 0v328h164v-328h-164zM410 1147v328h164v-328h-164zM574 328v164h164v-164h-164zM574 983v164h164v-164h-164zM738 492v163h163v-163h-163zM738 819v164h163v-164h-163zM901 655v164h164v-164h-164zM1065 492v163h164v-163h-164zM1065 819 v164h164v-164h-164zM1229 328v164h164v-164h-164zM1229 983v164h164v-164h-164zM1393 0v328h164v-328h-164zM1393 1147v328h164v-328h-164z" />
<glyph unicode="&#x2169;" horiz-adv-x="1310" d="M82 0v328h164v-328h-164zM82 1147v328h164v-328h-164zM246 328v164h164v-164h-164zM246 983v164h164v-164h-164zM410 492v163h163v-163h-163zM410 819v164h163v-164h-163zM573 655v164h164v-164h-164zM737 492v163h164v-163h-164zM737 819v164h164v-164h-164zM901 328 v164h164v-164h-164zM901 983v164h164v-164h-164zM1065 0v328h164v-328h-164zM1065 1147v328h164v-328h-164z" />
<glyph unicode="&#x216a;" horiz-adv-x="1638" d="M82 0v328h164v-328h-164zM82 1147v328h164v-328h-164zM246 328v164h164v-164h-164zM246 983v164h164v-164h-164zM410 492v163h163v-163h-163zM410 819v164h163v-164h-163zM573 655v164h164v-164h-164zM737 492v163h164v-163h-164zM737 819v164h164v-164h-164zM901 328 v164h164v-164h-164zM901 983v164h164v-164h-164zM1065 0v328h164v-328h-164zM1065 1147v328h164v-328h-164zM1393 0v1475h164v-1475h-164z" />
<glyph unicode="&#x216b;" horiz-adv-x="1966" d="M82 0v328h164v-328h-164zM82 1147v328h164v-328h-164zM246 328v164h164v-164h-164zM246 983v164h164v-164h-164zM410 492v163h163v-163h-163zM410 819v164h163v-164h-163zM573 655v164h164v-164h-164zM737 492v163h164v-163h-164zM737 819v164h164v-164h-164zM901 328 v164h164v-164h-164zM901 983v164h164v-164h-164zM1065 0v328h164v-328h-164zM1065 1147v328h164v-328h-164zM1393 0v1475h164v-1475h-164zM1720 0v1475h164v-1475h-164z" />
<glyph unicode="&#x216c;" d="M82 0v1475h164v-1311h655v-164h-819z" />
<glyph unicode="&#x216d;" horiz-adv-x="1146" d="M82 164v1147h164v-1147h-164zM246 0v164h655v-164h-655zM246 1311v164h655v-164h-655zM901 164v164h164v-164h-164zM901 1147v164h164v-164h-164z" />
<glyph unicode="&#x216e;" horiz-adv-x="1146" d="M82 0v1475h655v-164h164v-164h164v-819h-164v819h-164v164h-491v-1147h491v-164h-655zM737 164v164h164v-164h-164z" />
<glyph unicode="&#x216f;" horiz-adv-x="1310" d="M82 0v1475h164v-328h164v-328h163v-327h164v-328h-164v328h-163v327h-164v-819h-164zM737 492v327h164v-327h-164zM901 819v328h164v328h164v-1475h-164v819h-164z" />
<glyph unicode="&#x2170;" horiz-adv-x="327" d="M82 0v983h164v-983h-164z" />
<glyph unicode="&#x2171;" horiz-adv-x="655" d="M82 0v983h164v-983h-164zM410 0v983h164v-983h-164z" />
<glyph unicode="&#x2172;" d="M82 0v983h164v-983h-164zM410 0v983h164v-983h-164zM737 0v983h164v-983h-164z" />
<glyph unicode="&#x2173;" horiz-adv-x="1310" d="M82 0v983h164v-983h-164zM410 655v328h164v-328h-164zM574 328v327h164v-327h-164zM738 0v328h163v-328h-163zM901 328v327h164v-327h-164zM1065 655v328h164v-328h-164z" />
<glyph unicode="&#x2174;" d="M82 655v328h164v-328h-164zM246 328v327h164v-327h-164zM410 0v328h163v-328h-163zM573 328v327h164v-327h-164zM737 655v328h164v-328h-164z" />
<glyph unicode="&#x2175;" horiz-adv-x="1310" d="M82 655v328h164v-328h-164zM246 328v327h164v-327h-164zM410 0v328h163v-328h-163zM573 328v327h164v-327h-164zM737 655v328h164v-328h-164zM1065 0v983h164v-983h-164z" />
<glyph unicode="&#x2176;" horiz-adv-x="1638" d="M82 655v328h164v-328h-164zM246 328v327h164v-327h-164zM410 0v328h163v-328h-163zM573 328v327h164v-327h-164zM737 655v328h164v-328h-164zM1065 0v983h164v-983h-164zM1393 0v983h164v-983h-164z" />
<glyph unicode="&#x2177;" horiz-adv-x="1966" d="M82 655v328h164v-328h-164zM246 328v327h164v-327h-164zM410 0v328h163v-328h-163zM573 328v327h164v-327h-164zM737 655v328h164v-328h-164zM1065 0v983h164v-983h-164zM1393 0v983h164v-983h-164zM1720 0v983h164v-983h-164z" />
<glyph unicode="&#x2178;" horiz-adv-x="1146" d="M82 0v983h164v-983h-164zM410 0v328h164v-328h-164zM410 655v328h164v-328h-164zM574 328v327h327v-327h-327zM901 0v328h164v-328h-164zM901 655v328h164v-328h-164z" />
<glyph unicode="&#x2179;" horiz-adv-x="819" d="M82 0v328h164v-328h-164zM82 655v328h164v-328h-164zM246 328v327h327v-327h-327zM573 0v328h164v-328h-164zM573 655v328h164v-328h-164z" />
<glyph unicode="&#x217a;" horiz-adv-x="1146" d="M82 0v328h164v-328h-164zM82 655v328h164v-328h-164zM246 328v327h327v-327h-327zM573 0v328h164v-328h-164zM573 655v328h164v-328h-164zM901 0v983h164v-983h-164z" />
<glyph unicode="&#x217b;" horiz-adv-x="1474" d="M82 0v328h164v-328h-164zM82 655v328h164v-328h-164zM246 328v327h327v-327h-327zM573 0v328h164v-328h-164zM573 655v328h164v-328h-164zM901 0v983h164v-983h-164zM1229 0v983h164v-983h-164z" />
<glyph unicode="&#x217c;" horiz-adv-x="819" d="M82 0v983h164v-819h491v-164h-655z" />
<glyph unicode="&#x217d;" d="M82 164v655h164v-655h-164zM246 0v164h491v-164h-491zM246 819v164h491v-164h-491zM737 164v164h164v-164h-164zM737 655v164h164v-164h-164z" />
<glyph unicode="&#x217e;" d="M82 0v983h655v-164h164v-655h-164v655h-491v-655h491v-164h-655z" />
<glyph unicode="&#x217f;" horiz-adv-x="1310" d="M82 0v983h491v-164h164v-819h-164v819h-327v-819h-164zM737 819v164h328v-164h164v-819h-164v819h-328z" />
<glyph unicode="&#x2190;" horiz-adv-x="1638" d="M82 655v164h164v164h164v164h163v-164h-163v-164h1146v-164h-1146v-163h-164v163h-164zM410 328v164h163v-164h-163z" />
<glyph unicode="&#x2191;" d="M82 983v164h164v-164h-164zM246 1147v164h164v164h163v-164h164v-164h164v-164h-164v164h-164v-1147h-163v1147h-164z" />
<glyph unicode="&#x2192;" horiz-adv-x="1638" d="M82 656v164h1146v163h164v-163h164v-164h-164v-164h-164v-164h-163v164h163v164h-1146zM1065 983v164h163v-164h-163z" />
<glyph unicode="&#x2193;" d="M82 328v164h164v-164h164v1147h163v-1147h164v-164h-164v-164h-163v164h-164v164h-164zM737 328v164h164v-164h-164z" />
<glyph unicode="&#x2194;" horiz-adv-x="2129" d="M82 655v164h164v164h164v-164h1310v164h-164v164h164v-164h164v-164h164v-164h-164v-163h-164v163h-1310v-163h163v-164h-163v164h-164v163h-164zM410 983v164h163v-164h-163zM1556 328v164h164v-164h-164z" />
<glyph unicode="&#x2196;" horiz-adv-x="1310" d="M82 655v656h655v-164h-327v-164h163v-164h164v-164h164v-163h164v-164h164v-164h-164v164h-164v164h-164v163h-164v164h-163v164h-164v-328h-164z" />
<glyph unicode="&#x2197;" horiz-adv-x="1310" d="M82 164h164v164h164v164h164v163h164v164h163v164h164v-328h164v656h-655v-164h327v-164h-163v-164h-164v-164h-164v-163h-164v-164h-164v-164z" />
<glyph unicode="&#x2198;" horiz-adv-x="1310" d="M82 1147v164h164v-164h164v-164h164v-163h164v-164h163v-164h164v328h164v-656h-655v164h327v164h-163v164h-164v164h-164v163h-164v164h-164z" />
<glyph unicode="&#x2199;" horiz-adv-x="1310" d="M82 164h655v164h-327v164h163v164h164v164h164v163h164v164h164v164h-164v-164h-164v-164h-164v-163h-164v-164h-163v-164h-164v328h-164v-656z" />
<glyph unicode="&#x2202;" d="M82 164v655h164v164h491v328h164v-1147h-164v-164h-491v164h491v655h-491v-655h-164zM82 1311v164h655v-164h-655z" />
<glyph unicode="&#x2203;" d="M82 0h819v1475h-819v-164h655v-492h-491v-164h491v-491h-655v-164z" />
<glyph unicode="&#x2206;" horiz-adv-x="1310" d="M82 0v328h164v-164h819v164h-164v491h-164v328h-164v328h164v-328h164v-328h164v-491h164v-328h-1147zM246 328v491h164v-491h-164zM410 819v328h163v-328h-163z" />
<glyph unicode="&#x2207;" horiz-adv-x="1310" d="M82 1147v328h1147v-328h-164v164h-819v-164h164v-491h164v-328h164v-328h-164v328h-164v328h-164v491h-164zM738 328v328h163v-328h-163zM901 656v491h164v-491h-164z" />
<glyph unicode="&#x220f;" horiz-adv-x="1146" d="M82 0v1475h983v-1475h-164v1311h-655v-1311h-164z" />
<glyph unicode="&#x2210;" horiz-adv-x="1146" d="M82 0h983v1475h-164v-1311h-655v1311h-164v-1475z" />
<glyph unicode="&#x2211;" horiz-adv-x="1146" d="M82 0h983v164h-819v164h-164v-328zM82 1147v328h983v-164h-819v-164h-164zM246 328h164v164h-164v-164zM246 983v164h164v-164h-164zM410 492h163v163h-163v-163zM410 819v164h163v-164h-163zM573 655h164v164h-164v-164z" />
<glyph unicode="&#x2212;" d="M82 492v163h819v-163h-819z" />
<glyph unicode="&#x221a;" horiz-adv-x="1146" d="M82 328v327h164v-327h164v-328h-164v328h-164zM410 328v327h163v-327h-163zM573 655v328h164v-328h-164zM737 983v492h328v-164h-164v-328h-164z" />
<glyph unicode="&#x221e;" horiz-adv-x="1638" d="M82 492v491h164v-491h-164zM246 328v164h491v-164h-491zM246 983v164h491v-164h-491zM737 492v491h164v-491h-164zM901 328v164h492v-164h-492zM901 983v164h492v-164h-492zM1393 492v491h163v-491h-163z" />
<glyph unicode="&#x222b;" horiz-adv-x="655" d="M82 0h164v-164h-164v164zM246 0v1475h164v-1475h-164zM410 1475v163h163v-163h-163z" />
<glyph unicode="&#x2248;" horiz-adv-x="1146" d="M82 330v164h164v-164h-164zM82 821v164h164v-164h-164zM246 494v164h327v-164h-327zM246 985v164h327v-164h-327zM573 330v164h328v-164h-328zM573 821v164h328v-164h-328zM901 494v164h164v-164h-164zM901 985v164h164v-164h-164z" />
<glyph unicode="&#x2260;" d="M82 410v163h328v164h-328v164h491v164h164v-164h164v-164h-328v-164h328v-163h-491v-164h-164v164h-164z" />
<glyph unicode="&#x2261;" horiz-adv-x="1146" d="M82 328v164h983v-164h-983zM82 655v164h983v-164h-983zM82 983v164h983v-164h-983z" />
<glyph unicode="&#x2262;" horiz-adv-x="1146" d="M82 328v164h328v163h-328v164h491v164h-491v164h655v164h164v-164h164v-164h-328v-164h328v-164h-492v-163h492v-164h-655v-164h-164v164h-164z" />
<glyph unicode="&#x2263;" horiz-adv-x="1146" d="M82 164v164h983v-164h-983zM82 492v163h983v-163h-983zM82 819v164h983v-164h-983zM82 1147v164h983v-164h-983z" />
<glyph unicode="&#x25ca;" d="M82 573v326h164v-326h-164zM246 899v330h164v-330h-164zM248 246v329h164v-329h-164zM412 -2v246h163v-246h-163zM412 1229v246h163v-246h-163zM573 899v330h166v-330h-166zM575 244v329h166v-329h-166zM741 573v326h160v-326h-160z" />
<glyph unicode="&#x25fc;" d="M0 0v983h983v-983h-983z" />
<glyph unicode="&#xfb01;" horiz-adv-x="819" d="M82 0v1311h164v-328h491v-983h-164v819h-327v-819h-164zM246 1311v164h491v-164h-491z" />
<glyph unicode="&#xfb02;" horiz-adv-x="819" d="M82 0v1311h164v-328h164v-164h-164v-819h-164zM246 1311v164h491v-1475h-164v1311h-327z" />
</font>
</defs>
</svg>
